<?xml version="1.0" encoding="UTF-8" standalone="no"?>
<!-- Created with Inkscape (http://www.inkscape.org/) -->

<svg
   xmlns:osb="http://www.openswatchbook.org/uri/2009/osb"
   xmlns:dc="http://purl.org/dc/elements/1.1/"
   xmlns:cc="http://creativecommons.org/ns#"
   xmlns:rdf="http://www.w3.org/1999/02/22-rdf-syntax-ns#"
   xmlns:svg="http://www.w3.org/2000/svg"
   xmlns="http://www.w3.org/2000/svg"
   xmlns:xlink="http://www.w3.org/1999/xlink"
   xmlns:sodipodi="http://sodipodi.sourceforge.net/DTD/sodipodi-0.dtd"
   xmlns:inkscape="http://www.inkscape.org/namespaces/inkscape"
   width="1024"
   height="768"
   id="svg2"
   version="1.1"
   inkscape:version="0.48.2 r9819"
   sodipodi:docname="Icons.svg">
  <defs
     id="defs4">
    <linearGradient
       id="linearGradient3773">
      <stop
         style="stop-color:#ffffff;stop-opacity:1;"
         offset="0"
         id="stop3775" />
      <stop
         id="stop3781"
         offset="0.44991359"
         style="stop-color:#ffffff;stop-opacity:1;" />
      <stop
         style="stop-color:#a6a6a6;stop-opacity:1;"
         offset="1"
         id="stop3777" />
    </linearGradient>
    <linearGradient
       id="linearGradient3781">
      <stop
         style="stop-color:#ffffff;stop-opacity:1;"
         offset="0"
         id="stop3783" />
      <stop
         style="stop-color:#ffffff;stop-opacity:0;"
         offset="1"
         id="stop3785" />
    </linearGradient>
    <radialGradient
       inkscape:collect="always"
       xlink:href="#linearGradient3781"
       id="radialGradient3788"
       cx="526.21368"
       cy="844.67596"
       fx="526.21368"
       fy="844.67596"
       r="430.73047"
       gradientTransform="matrix(0.80656399,0,0,0.24267682,101.78869,281.88937)"
       gradientUnits="userSpaceOnUse" />
    <radialGradient
       inkscape:collect="always"
       xlink:href="#linearGradient3781"
       id="radialGradient3796"
       cx="526.21368"
       cy="844.67596"
       fx="526.21368"
       fy="844.67596"
       r="430.73047"
       gradientTransform="matrix(0.80656399,0,0,0.24267682,101.78869,281.88937)"
       gradientUnits="userSpaceOnUse" />
    <filter
       inkscape:collect="always"
       id="filter3834"
       x="-0.033873416"
       width="1.0677468"
       y="-0.26235302"
       height="1.524706">
      <feGaussianBlur
         inkscape:collect="always"
         stdDeviation="12.158594"
         id="feGaussianBlur3836" />
    </filter>
    <filter
       inkscape:collect="always"
       id="filter5024"
       x="-0.05400246"
       width="1.1080049"
       y="-0.43184262"
       height="1.8636852">
      <feGaussianBlur
         inkscape:collect="always"
         stdDeviation="19.29375"
         id="feGaussianBlur5026" />
    </filter>
    <filter
       inkscape:collect="always"
       id="filter5032"
       x="-0.087753998"
       width="1.175508"
       y="-0.70174426"
       height="2.4034885">
      <feGaussianBlur
         inkscape:collect="always"
         stdDeviation="31.352344"
         id="feGaussianBlur5034" />
    </filter>
    <linearGradient
       inkscape:collect="always"
       xlink:href="#linearGradient3773"
       id="linearGradient3779"
       x1="486.09973"
       y1="378.58096"
       x2="487.18329"
       y2="487.26019"
       gradientUnits="userSpaceOnUse" />
    <clipPath
       clipPathUnits="userSpaceOnUse"
       id="clipPath3429">
      <path
         inkscape:connector-curvature="0"
         d="M 300,17.142844 C 300,7.7184376 292.28143,-4.6875001e-5 282.85716,-4.6875001e-5 l -265.714316,0 C 7.7175939,-4.6875001e-5 0,7.7184376 0,17.142844 L 0,282.85716 C 0,292.28143 7.7175939,300 17.142844,300 l 265.714316,0 C 292.28143,300 300,292.28143 300,282.85716 l 0,-265.714316"
         style="fill:#3d549e;fill-opacity:1;fill-rule:nonzero;stroke:none"
         id="path3431" />
    </clipPath>
    <filter
       id="filter4353"
       inkscape:collect="always">
      <feGaussianBlur
         id="feGaussianBlur4355"
         stdDeviation="0.92094352"
         inkscape:collect="always" />
    </filter>
    <radialGradient
       gradientUnits="userSpaceOnUse"
       gradientTransform="matrix(1,0,0,0.99994838,0,0.01989018)"
       r="302.6875"
       fy="385.3125"
       fx="720.0156"
       cy="385.3125"
       cx="720.0156"
       id="radialGradient4029"
       xlink:href="#linearGradient4022"
       inkscape:collect="always" />
    <linearGradient
       osb:paint="solid"
       id="linearGradient5970">
      <stop
         id="stop5972"
         offset="0"
         style="stop-color:#7bc9fd;stop-opacity:1;" />
    </linearGradient>
    <linearGradient
       osb:paint="solid"
       id="linearGradient4024">
      <stop
         id="stop4026"
         offset="0"
         style="stop-color:#800000;stop-opacity:1;" />
    </linearGradient>
    <linearGradient
       id="linearGradient4022">
      <stop
         id="stop4024"
         offset="0"
         style="stop-color:#ff4c4c;stop-opacity:1;" />
      <stop
         id="stop4027"
         offset="1"
         style="stop-color:#780000;stop-opacity:1;" />
    </linearGradient>
    <linearGradient
       id="linearGradient4126">
      <stop
         id="stop4128"
         offset="0"
         style="stop-color:#c0c0c0;stop-opacity:1;" />
      <stop
         id="stop4130"
         offset="1"
         style="stop-color:#808080;stop-opacity:1;" />
    </linearGradient>
    <linearGradient
       id="linearGradient3962">
      <stop
         style="stop-color:#ffffff;stop-opacity:1;"
         offset="0"
         id="stop3964" />
      <stop
         style="stop-color:#a0a0a0;stop-opacity:1;"
         offset="1"
         id="stop3966" />
    </linearGradient>
    <linearGradient
       id="linearGradient3978">
      <stop
         style="stop-color:#000000;stop-opacity:1;"
         offset="0"
         id="stop3980" />
      <stop
         id="stop3984"
         offset="0.79452127"
         style="stop-color:#808080;stop-opacity:1;" />
      <stop
         style="stop-color:#c0c0c0;stop-opacity:1;"
         offset="1"
         id="stop3982" />
    </linearGradient>
    <linearGradient
       id="linearGradient4006">
      <stop
         id="stop4008"
         offset="0"
         style="stop-color:#000000;stop-opacity:1;" />
      <stop
         style="stop-color:#808080;stop-opacity:1;"
         offset="0.70000011"
         id="stop4010" />
      <stop
         id="stop4012"
         offset="1"
         style="stop-color:#c0c0c0;stop-opacity:1;" />
    </linearGradient>
    <linearGradient
       id="linearGradient4014">
      <stop
         id="stop4016"
         offset="0"
         style="stop-color:#000000;stop-opacity:1;" />
      <stop
         style="stop-color:#808080;stop-opacity:1;"
         offset="0.77599722"
         id="stop4018" />
      <stop
         id="stop4020"
         offset="1"
         style="stop-color:#c0c0c0;stop-opacity:1;" />
    </linearGradient>
    <linearGradient
       inkscape:collect="always"
       xlink:href="#linearGradient4126"
       id="linearGradient5888"
       gradientUnits="userSpaceOnUse"
       gradientTransform="matrix(0.36584091,0,0,0.36577552,134.96727,139.29167)"
       x1="208.85417"
       y1="143.12289"
       x2="208.85417"
       y2="294.85803" />
    <linearGradient
       inkscape:collect="always"
       xlink:href="#linearGradient4126"
       id="linearGradient5890"
       gradientUnits="userSpaceOnUse"
       gradientTransform="matrix(0.3198757,0,0,0.3540849,144.74958,139.48512)"
       x1="164.22313"
       y1="237.37065"
       x2="164.22313"
       y2="289.72662" />
    <linearGradient
       inkscape:collect="always"
       xlink:href="#linearGradient4126"
       id="linearGradient5892"
       gradientUnits="userSpaceOnUse"
       gradientTransform="matrix(0.3198757,0,0,0.31981861,144.74958,149.38484)"
       x1="212.64215"
       y1="218.22932"
       x2="212.64215"
       y2="289.66898" />
    <linearGradient
       inkscape:collect="always"
       xlink:href="#linearGradient4126"
       id="linearGradient5894"
       gradientUnits="userSpaceOnUse"
       gradientTransform="matrix(0.3198757,0,0,0.34889303,144.74958,140.98508)"
       x1="260.91412"
       y1="247.82164"
       x2="260.91412"
       y2="289.96588" />
    <linearGradient
       inkscape:collect="always"
       xlink:href="#linearGradient4126"
       id="linearGradient5896"
       gradientUnits="userSpaceOnUse"
       gradientTransform="matrix(0.36584091,0,0,0.36577552,335.11821,139.29167)"
       x1="208.85417"
       y1="143.12289"
       x2="208.85417"
       y2="294.85803" />
    <linearGradient
       inkscape:collect="always"
       xlink:href="#linearGradient4126"
       id="linearGradient5898"
       gradientUnits="userSpaceOnUse"
       gradientTransform="matrix(0.23969158,0,0,0.19886712,391.34691,121.01488)"
       x1="89.033203"
       y1="401.25894"
       x2="89.033203"
       y2="587.57953" />
    <linearGradient
       inkscape:collect="always"
       xlink:href="#linearGradient4126"
       id="linearGradient5911"
       gradientUnits="userSpaceOnUse"
       gradientTransform="matrix(0.4077091,0,0,0.40763538,423.11318,130.09821)"
       x1="208.85417"
       y1="143.12289"
       x2="208.85417"
       y2="294.85803" />
    <linearGradient
       inkscape:collect="always"
       xlink:href="#linearGradient4126"
       id="linearGradient5920"
       gradientUnits="userSpaceOnUse"
       gradientTransform="matrix(0.26712277,0,0,0.22162575,400.64482,109.7298)"
       x1="89.033203"
       y1="401.25894"
       x2="89.033203"
       y2="587.57953" />
    <linearGradient
       inkscape:collect="always"
       xlink:href="#linearGradient4126"
       id="linearGradient5923"
       gradientUnits="userSpaceOnUse"
       gradientTransform="matrix(0.4077091,0,0,0.40763538,337.9811,130.09821)"
       x1="208.85417"
       y1="143.12289"
       x2="208.85417"
       y2="294.85803" />
    <linearGradient
       inkscape:collect="always"
       xlink:href="#linearGradient4126"
       id="linearGradient5925"
       gradientUnits="userSpaceOnUse"
       gradientTransform="matrix(0.3198757,0,0,0.3540849,144.74958,139.48512)"
       x1="164.22313"
       y1="237.37065"
       x2="164.22313"
       y2="289.72662" />
    <linearGradient
       inkscape:collect="always"
       xlink:href="#linearGradient4126"
       id="linearGradient5927"
       gradientUnits="userSpaceOnUse"
       gradientTransform="matrix(0.3198757,0,0,0.31981861,144.74958,149.38484)"
       x1="212.64215"
       y1="218.22932"
       x2="212.64215"
       y2="289.66898" />
    <linearGradient
       inkscape:collect="always"
       xlink:href="#linearGradient4126"
       id="linearGradient5929"
       gradientUnits="userSpaceOnUse"
       gradientTransform="matrix(0.3198757,0,0,0.34889303,144.74958,140.98508)"
       x1="260.91412"
       y1="247.82164"
       x2="260.91412"
       y2="289.96588" />
    <linearGradient
       inkscape:collect="always"
       xlink:href="#linearGradient4126"
       id="linearGradient5958"
       gradientUnits="userSpaceOnUse"
       gradientTransform="matrix(0.4077091,0,0,0.40763538,337.9811,130.09821)"
       x1="208.85417"
       y1="143.12289"
       x2="208.85417"
       y2="294.85803" />
    <linearGradient
       inkscape:collect="always"
       xlink:href="#linearGradient4126"
       id="linearGradient5960"
       gradientUnits="userSpaceOnUse"
       gradientTransform="matrix(0.26712277,0,0,0.22162575,400.64482,109.7298)"
       x1="89.033203"
       y1="401.25894"
       x2="89.033203"
       y2="587.57953" />
    <linearGradient
       inkscape:collect="always"
       xlink:href="#linearGradient4126"
       id="linearGradient5963"
       gradientUnits="userSpaceOnUse"
       gradientTransform="matrix(0.26712277,0,0,0.22162575,399.73592,106.9798)"
       x1="89.033203"
       y1="401.25894"
       x2="89.033203"
       y2="587.57953" />
    <linearGradient
       inkscape:collect="always"
       xlink:href="#linearGradient4126"
       id="linearGradient5966"
       gradientUnits="userSpaceOnUse"
       gradientTransform="matrix(0.4077091,0,0,0.40763538,337.9811,130.09821)"
       x1="208.85417"
       y1="143.12289"
       x2="208.85417"
       y2="294.85803" />
    <linearGradient
       inkscape:collect="always"
       xlink:href="#linearGradient4126"
       id="linearGradient5968"
       gradientUnits="userSpaceOnUse"
       gradientTransform="matrix(0.4077091,0,0,0.40763538,423.11318,130.09821)"
       x1="208.85417"
       y1="143.12289"
       x2="208.85417"
       y2="294.85803" />
    <linearGradient
       inkscape:collect="always"
       xlink:href="#linearGradient4126"
       id="linearGradient5971"
       gradientUnits="userSpaceOnUse"
       gradientTransform="matrix(0.3198757,0,0,0.3540849,144.74958,139.48512)"
       x1="164.22313"
       y1="237.37065"
       x2="164.22313"
       y2="289.72662" />
    <linearGradient
       inkscape:collect="always"
       xlink:href="#linearGradient4126"
       id="linearGradient5973"
       gradientUnits="userSpaceOnUse"
       gradientTransform="matrix(0.3198757,0,0,0.31981861,144.74958,149.38484)"
       x1="212.64215"
       y1="218.22932"
       x2="212.64215"
       y2="289.66898" />
    <linearGradient
       inkscape:collect="always"
       xlink:href="#linearGradient4126"
       id="linearGradient5975"
       gradientUnits="userSpaceOnUse"
       gradientTransform="matrix(0.3198757,0,0,0.34889303,144.74958,140.98508)"
       x1="260.91412"
       y1="247.82164"
       x2="260.91412"
       y2="289.96588" />
    <linearGradient
       inkscape:collect="always"
       xlink:href="#linearGradient4126"
       id="linearGradient5988"
       gradientUnits="userSpaceOnUse"
       gradientTransform="matrix(0.4077091,0,0,0.40763538,423.11318,130.09821)"
       x1="208.85417"
       y1="143.12289"
       x2="208.85417"
       y2="294.85803" />
    <linearGradient
       inkscape:collect="always"
       xlink:href="#linearGradient4126"
       id="linearGradient6010"
       gradientUnits="userSpaceOnUse"
       gradientTransform="matrix(0.3198757,0,0,0.3540849,144.74958,139.48512)"
       x1="164.22313"
       y1="237.37065"
       x2="164.22313"
       y2="289.72662" />
    <linearGradient
       inkscape:collect="always"
       xlink:href="#linearGradient4126"
       id="linearGradient6012"
       gradientUnits="userSpaceOnUse"
       gradientTransform="matrix(0.3198757,0,0,0.31981861,144.74958,149.38484)"
       x1="212.64215"
       y1="218.22932"
       x2="212.64215"
       y2="289.66898" />
    <linearGradient
       inkscape:collect="always"
       xlink:href="#linearGradient4126"
       id="linearGradient6014"
       gradientUnits="userSpaceOnUse"
       gradientTransform="matrix(0.3198757,0,0,0.34889303,144.74958,140.98508)"
       x1="260.91412"
       y1="247.82164"
       x2="260.91412"
       y2="289.96588" />
    <linearGradient
       inkscape:collect="always"
       xlink:href="#linearGradient4126"
       id="linearGradient6022"
       x1="423.91565"
       y1="184.94688"
       x2="423.91565"
       y2="248.79143"
       gradientUnits="userSpaceOnUse" />
    <linearGradient
       inkscape:collect="always"
       xlink:href="#linearGradient4126"
       id="linearGradient6026"
       gradientUnits="userSpaceOnUse"
       x1="423.91565"
       y1="184.94688"
       x2="423.91565"
       y2="248.79143"
       gradientTransform="translate(83.364633,0)" />
    <linearGradient
       inkscape:collect="always"
       xlink:href="#linearGradient4126"
       id="linearGradient6039"
       gradientUnits="userSpaceOnUse"
       gradientTransform="matrix(0.33140543,0,0,0.36146794,436.6787,133.37002)"
       x1="260.91412"
       y1="247.82164"
       x2="260.91412"
       y2="289.96588" />
    <linearGradient
       inkscape:collect="always"
       xlink:href="#linearGradient4126"
       id="linearGradient6042"
       gradientUnits="userSpaceOnUse"
       gradientTransform="matrix(0.33140543,0,0,0.33134561,436.6787,142.07253)"
       x1="212.64215"
       y1="218.22932"
       x2="212.64215"
       y2="289.66898" />
    <linearGradient
       inkscape:collect="always"
       xlink:href="#linearGradient4126"
       id="linearGradient6045"
       gradientUnits="userSpaceOnUse"
       gradientTransform="matrix(0.33140543,0,0,0.36684693,435.82804,131.816)"
       x1="164.22313"
       y1="237.37065"
       x2="164.22313"
       y2="289.72662" />
    <linearGradient
       inkscape:collect="always"
       xlink:href="#linearGradient4126"
       id="linearGradient6062"
       gradientUnits="userSpaceOnUse"
       gradientTransform="matrix(0.33140543,0,0,0.36146794,436.6787,133.37002)"
       x1="260.91412"
       y1="247.82164"
       x2="260.91412"
       y2="289.96588" />
    <linearGradient
       inkscape:collect="always"
       xlink:href="#linearGradient4126"
       id="linearGradient6064"
       gradientUnits="userSpaceOnUse"
       gradientTransform="matrix(0.33140543,0,0,0.36684693,435.82804,131.816)"
       x1="164.22313"
       y1="237.37065"
       x2="164.22313"
       y2="289.72662" />
    <linearGradient
       inkscape:collect="always"
       xlink:href="#linearGradient4126"
       id="linearGradient6066"
       gradientUnits="userSpaceOnUse"
       gradientTransform="matrix(0.33140543,0,0,0.33134561,436.6787,142.07253)"
       x1="212.64215"
       y1="218.22932"
       x2="212.64215"
       y2="289.66898" />
    <linearGradient
       inkscape:collect="always"
       xlink:href="#linearGradient4126"
       id="linearGradient6082"
       gradientUnits="userSpaceOnUse"
       gradientTransform="matrix(0.33140543,0,0,0.33134561,436.6787,142.07253)"
       x1="212.64215"
       y1="218.22932"
       x2="212.64215"
       y2="289.66898" />
    <linearGradient
       inkscape:collect="always"
       xlink:href="#linearGradient4126"
       id="linearGradient6084"
       gradientUnits="userSpaceOnUse"
       gradientTransform="matrix(0.33140543,0,0,0.36684693,435.82804,131.816)"
       x1="164.22313"
       y1="237.37065"
       x2="164.22313"
       y2="289.72662" />
    <linearGradient
       inkscape:collect="always"
       xlink:href="#linearGradient4126"
       id="linearGradient6086"
       gradientUnits="userSpaceOnUse"
       gradientTransform="matrix(0.33140543,0,0,0.36146794,436.6787,133.37002)"
       x1="260.91412"
       y1="247.82164"
       x2="260.91412"
       y2="289.96588" />
    <linearGradient
       inkscape:collect="always"
       xlink:href="#linearGradient4126"
       id="linearGradient6106"
       gradientUnits="userSpaceOnUse"
       x1="423.91565"
       y1="184.94688"
       x2="423.91565"
       y2="248.79143" />
    <linearGradient
       inkscape:collect="always"
       xlink:href="#linearGradient4126"
       id="linearGradient6108"
       gradientUnits="userSpaceOnUse"
       gradientTransform="matrix(0.33140543,0,0,0.33134561,436.6787,142.07253)"
       x1="212.64215"
       y1="218.22932"
       x2="212.64215"
       y2="289.66898" />
    <linearGradient
       inkscape:collect="always"
       xlink:href="#linearGradient4126"
       id="linearGradient6110"
       gradientUnits="userSpaceOnUse"
       gradientTransform="matrix(0.33140543,0,0,0.36684693,435.82804,131.816)"
       x1="164.22313"
       y1="237.37065"
       x2="164.22313"
       y2="289.72662" />
    <linearGradient
       inkscape:collect="always"
       xlink:href="#linearGradient4126"
       id="linearGradient6112"
       gradientUnits="userSpaceOnUse"
       gradientTransform="matrix(0.33140543,0,0,0.36146794,436.6787,133.37002)"
       x1="260.91412"
       y1="247.82164"
       x2="260.91412"
       y2="289.96588" />
    <linearGradient
       inkscape:collect="always"
       xlink:href="#linearGradient4126"
       id="linearGradient6114"
       gradientUnits="userSpaceOnUse"
       gradientTransform="translate(83.364633,0)"
       x1="423.91565"
       y1="184.94688"
       x2="423.91565"
       y2="248.79143" />
    <radialGradient
       inkscape:collect="always"
       xlink:href="#linearGradient4126"
       id="radialGradient6116"
       cx="423.84375"
       cy="201.217"
       fx="423.84375"
       fy="201.217"
       r="22.202869"
       gradientTransform="matrix(1,0,0,0.98972768,0,2.2278095)"
       gradientUnits="userSpaceOnUse" />
  </defs>
  <sodipodi:namedview
     id="base"
     pagecolor="#515151"
     bordercolor="#666666"
     borderopacity="1.0"
     inkscape:pageopacity="1"
     inkscape:pageshadow="2"
     inkscape:zoom="19.294833"
     inkscape:cx="423.84375"
     inkscape:cy="551.12501"
     inkscape:document-units="px"
     inkscape:current-layer="achievements"
     showgrid="false"
     inkscape:window-width="1916"
     inkscape:window-height="1036"
     inkscape:window-x="70"
     inkscape:window-y="3"
     inkscape:window-maximized="0" />
  <metadata
     id="metadata7">
    <rdf:RDF>
      <cc:Work
         rdf:about="">
        <dc:format>image/svg+xml</dc:format>
        <dc:type
           rdf:resource="http://purl.org/dc/dcmitype/StillImage" />
        <dc:title></dc:title>
      </cc:Work>
    </rdf:RDF>
  </metadata>
  <g
     inkscape:groupmode="layer"
     id="layer4"
     inkscape:label="Social Media Links"
     sodipodi:insensitive="true"
     style="display:inline">
    <g
       id="facebook-icon"
       inkscape:label="#g3414"
       transform="translate(-39.753719,0)">
      <path
         inkscape:connector-curvature="0"
         d="m 492.37737,533.70135 c 0,2.01053 -1.64663,3.65714 -3.65715,3.65714 l -56.68572,0 c -2.01071,0 -3.65714,-1.64661 -3.65714,-3.65714 l 0,-56.68572 c 0,-2.01052 1.64643,-3.65715 3.65714,-3.65715 l 56.68572,0 c 2.01052,0 3.65715,1.64663 3.65715,3.65715 l 0,56.68572"
         style="fill:#3d549e;fill-opacity:1;fill-rule:nonzero;stroke:none"
         id="path3147" />
      <path
         inkscape:connector-curvature="0"
         d="m 432.94879,532.78706 54.85715,0 0,-9.14286 -54.85715,0 0,9.14286 z"
         style="fill:#6b7fb9;fill-opacity:1;fill-rule:nonzero;stroke:none"
         id="path3149" />
      <path
         inkscape:connector-curvature="0"
         d="m 464.94879,532.78706 0,-23.5286 -6.22144,0 0,-8.4714 6.22144,0 c 0,0 0,-3.47145 0,-7.23571 0,-5.68589 3.67502,-10.90738 12.14309,-10.90738 3.42857,0 5.96389,0.32869 5.96389,0.32869 l -0.19978,7.91085 c 0,0 -2.5856,-0.0251 -5.40708,-0.0251 -3.05372,0 -3.54295,1.40727 -3.54295,3.743 0,1.8464 0,-3.93591 0,6.18569 l 9.19278,0 -0.4,8.4714 -8.79278,0 0,23.5286 -8.95717,0"
         style="fill:#ffffff;fill-opacity:1;fill-rule:nonzero;stroke:none"
         id="path3151" />
    </g>
    <g
       transform="matrix(0.21333333,0,0,-0.21333333,484.92556,537.35848)"
       inkscape:label="ink_ext_XXXXXX"
       id="twitter-icon"
       clip-path="url(#clipPath3429)">
      <g
         transform="scale(0.1,0.1)"
         id="g3398">
        <path
           id="path3400"
           style="fill:#ffffff;fill-opacity:1;fill-rule:nonzero;stroke:none"
           d="m 0,0 3000,0 0,3000 L 0,3000 0,0 z"
           inkscape:connector-curvature="0" />
        <path
           id="path3402"
           style="fill:#52ade5;fill-opacity:1;fill-rule:nonzero;stroke:none"
           d="m 2500,2120.27 c -73.58,-32.64 -152.67,-54.7 -235.66,-64.62 84.7,50.79 149.77,131.2 180.41,227.02 -79.29,-47.03 -167.1,-81.17 -260.57,-99.57 -74.84,79.74 -181.48,129.57 -299.5,129.57 -226.6,0 -410.33,-183.71 -410.33,-410.32 0,-32.15 3.63,-63.47 10.63,-93.51 -341.02,17.12 -643.371,180.47 -845.742,428.72 -35.32,-60.6 -55.554,-131.08 -55.554,-206.28 0,-142.36 72.433,-267.95 182.539,-341.53 -67.262,2.13 -130.535,20.59 -185.852,51.32 -0.039,-1.71 -0.039,-3.43 -0.039,-5.16 0,-198.81 141.441,-364.64 329.145,-402.35 -34.426,-9.37 -70.676,-14.39 -108.098,-14.39 -26.441,0 -52.145,2.58 -77.203,7.36 52.215,-163 203.75,-281.65 383.304,-284.95 C 967.051,931.52 790.129,865.93 597.883,865.93 c -33.121,0 -65.781,1.941 -97.883,5.742 181.586,-116.434 397.27,-184.371 628.99,-184.371 754.73,0 1167.46,625.249 1167.46,1167.479 0,17.78 -0.41,35.48 -1.2,53.08 80.18,57.85 149.74,130.12 204.75,212.41"
           inkscape:connector-curvature="0" />
      </g>
    </g>
    <g
       transform="matrix(0.22148939,0,0,-0.22148939,591.07848,523.35848)"
       inkscape:label="ink_ext_XXXXXX"
       id="twitter-bird">
      <g
         transform="scale(0.1,0.1)"
         id="g3206">
        <path
           id="path3208"
           style="fill:#ffffff;fill-opacity:1;fill-rule:nonzero;stroke:none"
           d="m 2000,1432.96 c -73.58,-32.64 -152.67,-54.69 -235.66,-64.61 84.7,50.78 149.77,131.19 180.41,227.01 -79.29,-47.03 -167.1,-81.17 -260.57,-99.57 -74.84,79.75 -181.48,129.57 -299.5,129.57 -226.6,0 -410.328,-183.71 -410.328,-410.31 0,-32.16 3.628,-63.48 10.625,-93.51 -341.016,17.11 -643.368,180.47 -845.739,428.72 -35.324,-60.6 -55.5583,-131.09 -55.5583,-206.29 0,-142.36 72.4373,-267.95 182.5433,-341.53 -67.262,2.13 -130.535,20.59 -185.8519,51.32 -0.0391,-1.71 -0.0391,-3.42 -0.0391,-5.16 0,-198.803 141.441,-364.635 329.145,-402.342 -34.426,-9.375 -70.676,-14.395 -108.098,-14.395 -26.441,0 -52.145,2.578 -77.203,7.364 C 276.391,476.219 427.926,357.578 607.48,354.281 467.051,244.219 290.129,178.621 97.8828,178.621 64.7617,178.621 32.0977,180.57 0,184.359 181.586,67.9414 397.27,0 628.988,0 1383.72,0 1796.45,625.238 1796.45,1167.47 c 0,17.79 -0.41,35.48 -1.2,53.08 80.18,57.86 149.74,130.12 204.75,212.41"
           inkscape:connector-curvature="0" />
      </g>
    </g>
  </g>
  <g
     inkscape:groupmode="layer"
     id="layer1"
     inkscape:label="Menu Icons">
    <g
       inkscape:label="Screen Ratios"
       id="layer1-4"
       transform="translate(498.36026,47.96822)"
       style="display:none">
      <rect
         style="fill:#474747;fill-opacity:1;stroke:none"
         id="rect3128"
         width="1024"
         height="768"
         x="0"
         y="284.36218" />
      <rect
         style="fill:#000000;fill-opacity:1;stroke:none"
         id="rect3130"
         width="1024"
         height="682.66663"
         x="0"
         y="327.02887" />
      <text
         xml:space="preserve"
         style="font-size:5px;font-style:normal;font-variant:normal;font-weight:normal;font-stretch:normal;line-height:125%;letter-spacing:0px;word-spacing:0px;fill:#000000;fill-opacity:1;stroke:none;font-family:American Typewriter;-inkscape-font-specification:American Typewriter"
         x="897.23584"
         y="59.321381"
         id="text3901"
         sodipodi:linespacing="125%"
         transform="translate(0,284.36218)"><tspan
           sodipodi:role="line"
           id="tspan3903"
           x="897.23584"
           y="59.321381" /></text>
    </g>
    <g
       id="layer10"
       inkscape:label="Notes"
       style="display:none"
       transform="translate(498.36026,332.3304)">
      <text
         transform="translate(0,-284.36218)"
         xml:space="preserve"
         style="font-size:5px;font-style:normal;font-variant:normal;font-weight:normal;font-stretch:normal;line-height:125%;letter-spacing:0px;word-spacing:0px;fill:#c6cbcc;fill-opacity:1;stroke:none;display:inline;enable-background:new;font-family:American Typewriter;-inkscape-font-specification:American Typewriter"
         x="15.889655"
         y="350.03943"
         id="text3905"
         sodipodi:linespacing="125%"><tspan
           sodipodi:role="line"
           id="tspan3907"
           x="15.889655"
           y="350.03943"
           style="font-size:16px;fill:#c6cbcc;fill-opacity:1">iPhone (42.19dpi) iPhone-hd (84.38dpi)</tspan></text>
      <text
         transform="translate(0,-284.36218)"
         xml:space="preserve"
         style="font-size:5px;font-style:normal;font-variant:normal;font-weight:normal;font-stretch:normal;line-height:125%;letter-spacing:0px;word-spacing:0px;fill:#c6cbcc;fill-opacity:1;stroke:none;display:inline;enable-background:new;font-family:American Typewriter;-inkscape-font-specification:American Typewriter"
         x="15.889655"
         y="311.90424"
         id="text3909"
         sodipodi:linespacing="125%"><tspan
           sodipodi:role="line"
           id="tspan3911"
           x="15.889655"
           y="311.90424"
           style="font-size:16px;fill:#c6cbcc;fill-opacity:1">iPad (90dpi) iPad-hd (180dpi)</tspan></text>
    </g>
    <g
       id="achievements"
       inkscape:label="#g6028">
      <path
         sodipodi:nodetypes="ccsccsscsccscssccsccccccccc"
         inkscape:connector-curvature="0"
         id="path5764"
         d="m 402.64088,195.9002 c 0,0 1.70632,5.33451 3.2806,7.82616 -3.3249,1.34623 -3.62704,4.71772 -2.07021,6.76651 1.55684,2.04878 5.28711,4.23097 9.99207,4.19011 1.57831,2.38752 5.91843,3.69838 5.91843,3.69838 1.2035,0.40845 1.77537,1.73446 1.93665,2.80495 0.50011,3.31945 0.50011,6.71602 0,10.03549 -0.16128,1.0705 -0.65147,2.64783 -1.93665,2.81187 0,0 -7.87492,0.62846 -10.94368,2.3617 -0.92608,0.52306 -1.75299,1.45442 -1.75299,1.45442 11.18577,0 22.37153,0 33.55729,0 0,0 -0.82691,-0.93136 -1.753,-1.45442 -3.06874,-1.73324 -10.95202,-2.3617 -10.95202,-2.3617 -1.28518,-0.16404 -1.77536,-1.74137 -1.93664,-2.81187 -0.50011,-3.31947 -0.50011,-6.71604 0,-10.03549 0.16128,-1.07049 0.73314,-2.3965 1.93664,-2.80495 0,0 4.34847,-1.31086 5.92678,-3.69838 4.70496,0.0409 8.42689,-2.14133 9.98372,-4.19011 1.55683,-2.04879 1.2547,-5.42028 -2.0702,-6.76651 1.57427,-2.49165 3.28895,-7.82616 3.28895,-7.82616 -14.84758,0 -27.55817,0 -42.40574,0 z m 4.299,9.82771 c 1.76806,3.97736 5.16716,7.25132 5.16716,7.25132 0,0 -10.74134,-3.10645 -5.16716,-7.25132 z m 33.79938,0 c 5.57419,4.14487 -5.1588,7.25132 -5.1588,7.25132 0,0 3.39074,-3.27396 5.1588,-7.25132 z"
         style="fill:url(#radialGradient6116);fill-opacity:1;stroke:#ffffff;stroke-width:2;stroke-linecap:round;stroke-linejoin:round;stroke-miterlimit:4;stroke-opacity:1;stroke-dasharray:none;stroke-dashoffset:0" />
      <path
         id="rect5990"
         d="m 397.75,185.875 c -2.70978,0 -4.90625,2.19647 -4.90625,4.90625 l 0,52.21875 c 0,2.70978 2.19647,4.875 4.90625,4.875 l 52.1875,0 c 2.70978,0 4.90625,-2.16522 4.90625,-4.875 l 0,-52.21875 c 0,-2.70978 -2.19647,-4.90625 -4.90625,-4.90625 l -52.1875,0 z m 1.6875,4.25 48.8125,0 c 1.29598,0 2.3125,1.04777 2.3125,2.34375 l 0,48.8125 c 0,1.29598 -1.01652,2.34375 -2.3125,2.34375 l -48.8125,0 c -1.29598,0 -2.34375,-1.04777 -2.34375,-2.34375 l 0,-48.8125 c 0,-1.29598 1.04777,-2.34375 2.34375,-2.34375 z"
         style="fill:url(#linearGradient6106);fill-opacity:1;stroke:#ffffff;stroke-width:2;stroke-linecap:round;stroke-linejoin:round;stroke-miterlimit:4;stroke-opacity:1;stroke-dasharray:none;stroke-dashoffset:0"
         inkscape:connector-curvature="0" />
    </g>
    <g
       id="leaderboard"
       inkscape:label="#g6088">
      <g
         transform="translate(0.10631503,0)"
         id="g6068">
        <g
           id="g6052"
           transform="translate(-0.10631764,0)">
          <rect
             style="fill:url(#linearGradient6108);fill-opacity:1;stroke:#ffffff;stroke-width:2.09925437;stroke-linecap:round;stroke-linejoin:round;stroke-miterlimit:4;stroke-opacity:1;stroke-dasharray:none;stroke-dashoffset:0"
             id="rect5672"
             width="13.806475"
             height="23.106668"
             x="500.30515"
             y="214.6935" />
          <text
             transform="scale(1.0000903,0.99990976)"
             xml:space="preserve"
             style="font-size:13.25502014px;font-style:normal;font-variant:normal;font-weight:normal;font-stretch:normal;line-height:125%;letter-spacing:0px;word-spacing:0px;fill:#ffffff;fill-opacity:1;stroke:none;font-family:Bitstream Vera Sans Mono;-inkscape-font-specification:Bitstream Vera Sans Mono"
             x="501.95895"
             y="232.065"
             id="text5681"
             sodipodi:linespacing="125%"><tspan
               style="font-size:15.90602398px;font-style:normal;font-variant:normal;font-weight:normal;font-stretch:normal;font-family:Bitstream Vera Sans Mono;-inkscape-font-specification:Bitstream Vera Sans Mono"
               sodipodi:role="line"
               id="tspan5683"
               x="501.95895"
               y="232.065">1</tspan></text>
        </g>
        <g
           id="g6047"
           transform="translate(5.6028366e-6,0)">
          <rect
             y="219.19478"
             x="483.39697"
             height="18.60537"
             width="13.806475"
             id="rect5670"
             style="fill:url(#linearGradient6110);fill-opacity:1;stroke:#ffffff;stroke-width:2.09925437;stroke-linecap:round;stroke-linejoin:round;stroke-miterlimit:4;stroke-opacity:1;stroke-dasharray:none;stroke-dashoffset:0" />
          <text
             transform="scale(1.0000903,0.99990973)"
             sodipodi:linespacing="125%"
             id="text5690"
             y="234.4207"
             x="485.55328"
             style="font-size:15.90602398px;font-style:normal;font-variant:normal;font-weight:normal;font-stretch:normal;line-height:125%;letter-spacing:0px;word-spacing:0px;fill:#ffffff;fill-opacity:1;stroke:none;font-family:Bitstream Vera Sans Mono;-inkscape-font-specification:Bitstream Vera Sans Mono"
             xml:space="preserve"><tspan
               y="234.4207"
               x="485.55328"
               id="tspan5692"
               sodipodi:role="line">2</tspan></text>
        </g>
        <g
           id="g6057"
           transform="translate(0.63800609,0)">
          <rect
             y="223.396"
             x="516.36267"
             height="14.40416"
             width="13.806475"
             id="rect5674"
             style="fill:url(#linearGradient6112);fill-opacity:1;stroke:#ffffff;stroke-width:2.09925437;stroke-linecap:round;stroke-linejoin:round;stroke-miterlimit:4;stroke-opacity:1;stroke-dasharray:none;stroke-dashoffset:0" />
          <text
             transform="scale(1.0000903,0.99990976)"
             xml:space="preserve"
             style="font-size:15.90602398px;font-style:normal;font-variant:normal;font-weight:normal;font-stretch:normal;line-height:125%;letter-spacing:0px;word-spacing:0px;fill:#ffffff;fill-opacity:1;stroke:none;font-family:Bitstream Vera Sans Mono;-inkscape-font-specification:Bitstream Vera Sans Mono"
             x="518.49658"
             y="236.40889"
             id="text5694"
             sodipodi:linespacing="125%"><tspan
               sodipodi:role="line"
               id="tspan5696"
               x="518.49658"
               y="236.40889">3</tspan></text>
        </g>
      </g>
      <path
         inkscape:connector-curvature="0"
         style="fill:url(#linearGradient6114);fill-opacity:1;stroke:#ffffff;stroke-width:2;stroke-linecap:round;stroke-linejoin:round;stroke-miterlimit:4;stroke-opacity:1;stroke-dasharray:none;stroke-dashoffset:0"
         d="m 481.11463,185.875 c -2.70978,0 -4.90625,2.19647 -4.90625,4.90625 l 0,52.21875 c 0,2.70978 2.19647,4.875 4.90625,4.875 l 52.1875,0 c 2.70978,0 4.90625,-2.16522 4.90625,-4.875 l 0,-52.21875 c 0,-2.70978 -2.19647,-4.90625 -4.90625,-4.90625 l -52.1875,0 z m 1.6875,4.25 48.8125,0 c 1.29598,0 2.3125,1.04777 2.3125,2.34375 l 0,48.8125 c 0,1.29598 -1.01652,2.34375 -2.3125,2.34375 l -48.8125,0 c -1.29598,0 -2.34375,-1.04777 -2.34375,-2.34375 l 0,-48.8125 c 0,-1.29598 1.04777,-2.34375 2.34375,-2.34375 z"
         id="path6024" />
    </g>
  </g>
</svg>
