<?xml version="1.0" encoding="UTF-8" standalone="no"?>
<!-- Created with Inkscape (http://www.inkscape.org/) -->

<svg
   xmlns:osb="http://www.openswatchbook.org/uri/2009/osb"
   xmlns:dc="http://purl.org/dc/elements/1.1/"
   xmlns:cc="http://creativecommons.org/ns#"
   xmlns:rdf="http://www.w3.org/1999/02/22-rdf-syntax-ns#"
   xmlns:svg="http://www.w3.org/2000/svg"
   xmlns="http://www.w3.org/2000/svg"
   xmlns:sodipodi="http://sodipodi.sourceforge.net/DTD/sodipodi-0.dtd"
   xmlns:inkscape="http://www.inkscape.org/namespaces/inkscape"
   width="1024"
   height="768"
   id="svg3101"
   version="1.1"
   inkscape:version="0.48+devel r9906"
   sodipodi:docname="SpriteWorksheet.svg"
   style="display:inline;enable-background:new">
  <defs
     id="defs3103">
    <linearGradient
       id="linearGradient4024"
       osb:paint="solid">
      <stop
         style="stop-color:#800000;stop-opacity:1;"
         offset="0"
         id="stop4026" />
    </linearGradient>
    <linearGradient
       id="linearGradient5970"
       osb:paint="solid">
      <stop
         style="stop-color:#7bc9fd;stop-opacity:1;"
         offset="0"
         id="stop5972" />
    </linearGradient>
    <inkscape:perspective
       sodipodi:type="inkscape:persp3d"
       inkscape:vp_x="0 : 384 : 1"
       inkscape:vp_y="0 : 1000 : 0"
       inkscape:vp_z="1024 : 384 : 1"
       inkscape:persp3d-origin="512 : 256 : 1"
       id="perspective3919" />
  </defs>
  <sodipodi:namedview
     id="base"
     pagecolor="#000000"
     bordercolor="#666666"
     borderopacity="1.0"
     inkscape:pageopacity="0"
     inkscape:pageshadow="2"
     inkscape:zoom="0.95117188"
     inkscape:cx="643.15158"
     inkscape:cy="334.24618"
     inkscape:document-units="px"
     inkscape:current-layer="layer9"
     showgrid="false"
     inkscape:window-width="1493"
     inkscape:window-height="913"
     inkscape:window-x="250"
     inkscape:window-y="0"
     inkscape:window-maximized="0"
     units="px"
     inkscape:snap-bbox="true"
     showborder="false"
     borderlayer="false"
     inkscape:snap-grids="true">
    <inkscape:grid
       type="xygrid"
       id="grid3967"
       empspacing="5"
       visible="true"
       enabled="true"
       snapvisiblegridlinesonly="true" />
  </sodipodi:namedview>
  <metadata
     id="metadata3106">
    <rdf:RDF>
      <cc:Work
         rdf:about="">
        <dc:format>image/svg+xml</dc:format>
        <dc:type
           rdf:resource="http://purl.org/dc/dcmitype/StillImage" />
        <dc:title></dc:title>
      </cc:Work>
    </rdf:RDF>
  </metadata>
  <g
     inkscape:label="Screen Ratios"
     inkscape:groupmode="layer"
     id="layer1"
     transform="translate(0,-284.36218)"
     style="display:none"
     sodipodi:insensitive="true">
    <rect
       style="fill:#323232;fill-opacity:1;stroke:none"
       id="rect3128"
       width="1024"
       height="768"
       x="0"
       y="284.36218" />
    <rect
       style="fill:#505050;fill-opacity:1;stroke:none"
       id="rect3130"
       width="1024"
       height="682.66663"
       x="0"
       y="327.02887" />
    <text
       xml:space="preserve"
       style="font-size:5px;font-style:normal;font-variant:normal;font-weight:normal;font-stretch:normal;line-height:125%;letter-spacing:0px;word-spacing:0px;fill:#000000;fill-opacity:1;stroke:none;font-family:American Typewriter;-inkscape-font-specification:American Typewriter"
       x="897.23584"
       y="59.321381"
       id="text3901"
       sodipodi:linespacing="125%"
       transform="translate(0,284.36218)"><tspan
         sodipodi:role="line"
         id="tspan3903"
         x="897.23584"
         y="59.321381" /></text>
    <text
       xml:space="preserve"
       style="font-size:5px;font-style:normal;font-variant:normal;font-weight:normal;font-stretch:normal;line-height:125%;letter-spacing:0px;word-spacing:0px;fill:#ffffff;fill-opacity:1;stroke:none;font-family:American Typewriter;-inkscape-font-specification:American Typewriter"
       x="15.889655"
       y="350.03943"
       id="text3905"
       sodipodi:linespacing="125%"><tspan
         sodipodi:role="line"
         id="tspan3907"
         x="15.889655"
         y="350.03943"
         style="font-size:16px;fill:#ffffff;fill-opacity:1">iPhone</tspan></text>
    <text
       xml:space="preserve"
       style="font-size:5px;font-style:normal;font-variant:normal;font-weight:normal;font-stretch:normal;line-height:125%;letter-spacing:0px;word-spacing:0px;fill:#ffffff;fill-opacity:1;stroke:none;font-family:American Typewriter;-inkscape-font-specification:American Typewriter"
       x="15.889655"
       y="311.90424"
       id="text3909"
       sodipodi:linespacing="125%"><tspan
         sodipodi:role="line"
         id="tspan3911"
         x="15.889655"
         y="311.90424"
         style="font-size:16px;fill:#ffffff;fill-opacity:1">iPad</tspan></text>
  </g>
  <g
     inkscape:groupmode="layer"
     id="layer2"
     inkscape:label="Map"
     style="display:inline"
     sodipodi:insensitive="true">
    <g
       id="g3995"
       style="stroke:#c6cbcc;stroke-width:8;stroke-miterlimit:4;stroke-opacity:1;stroke-dasharray:none"
       transform="matrix(0,1,-1,0,649.42321,101.09816)"
       inkscape:export-filename="/Users/nathan/Documents/Xcode Projects/CharmQuark/CharmQuark/Images/Clock/iPhone-hd/LHCMap.png"
       inkscape:export-xdpi="84.379997"
       inkscape:export-ydpi="84.379997">
      <path
         transform="matrix(1.1580327,0,0,1.1580327,-220.66508,-146.70299)"
         d="m 628.17104,448.61792 a 193.32414,193.32414 0 1 1 -386.64829,0 193.32414,193.32414 0 1 1 386.64829,0 z"
         sodipodi:ry="193.32414"
         sodipodi:rx="193.32414"
         sodipodi:cy="448.61792"
         sodipodi:cx="434.84689"
         id="path3985"
         style="fill:none;stroke:#c6cbcc;stroke-width:6.90826797;stroke-linecap:round;stroke-linejoin:round;stroke-miterlimit:4;stroke-opacity:1;stroke-dasharray:none"
         sodipodi:type="arc" />
      <path
         sodipodi:type="arc"
         style="fill:none;stroke:#c6cbcc;stroke-width:15.49795628;stroke-linecap:round;stroke-linejoin:round;stroke-miterlimit:4;stroke-opacity:1;stroke-dasharray:none"
         id="path3987"
         sodipodi:cx="434.84689"
         sodipodi:cy="448.61792"
         sodipodi:rx="193.32414"
         sodipodi:ry="193.32414"
         d="m 628.17104,448.61792 a 193.32414,193.32414 0 1 1 -386.64829,0 193.32414,193.32414 0 1 1 386.64829,0 z"
         transform="matrix(0.51619708,0,0,0.51619708,60.275219,305.61594)" />
      <path
         sodipodi:nodetypes="cc"
         inkscape:connector-curvature="0"
         id="path3989"
         d="m 364.29119,477.00876 c 38.86042,55.41913 96.30592,41.57677 128.0079,-24.56177"
         style="fill:none;stroke:#c6cbcc;stroke-width:8;stroke-linecap:round;stroke-linejoin:round;stroke-miterlimit:4;stroke-opacity:1;stroke-dasharray:none" />
      <path
         sodipodi:nodetypes="cc"
         inkscape:connector-curvature="0"
         id="path3991"
         d="M 260.86967,634.05306 C 172.87879,610.79271 109.58369,550.71941 78.520257,464.53923"
         style="fill:none;stroke:#c6cbcc;stroke-width:8;stroke-linecap:round;stroke-linejoin:round;stroke-miterlimit:4;stroke-opacity:1;stroke-dasharray:none" />
      <path
         sodipodi:nodetypes="cc"
         inkscape:connector-curvature="0"
         id="path3993"
         d="m 191.90119,500.72593 c -21.98573,60.63238 -23.84455,137.15439 -23.58475,147.99918"
         style="fill:none;stroke:#c6cbcc;stroke-width:8;stroke-linecap:round;stroke-linejoin:round;stroke-miterlimit:4;stroke-opacity:1;stroke-dasharray:none" />
    </g>
  </g>
  <g
     inkscape:groupmode="layer"
     id="layer4"
     inkscape:label="Packets"
     style="display:inline"
     sodipodi:insensitive="true">
    <g
       id="g3176"
       transform="translate(-33.897931,0)">
      <path
         inkscape:export-ydpi="84.379997"
         inkscape:export-xdpi="84.379997"
         inkscape:export-filename="/Users/nathan/Documents/Xcode Projects/CharmQuark/CharmQuark/Images/Clock/iPhone-hd/red-small.png"
         transform="matrix(0,0.46370965,-0.46370965,0,372.80165,376.2773)"
         d="m 582.62066,305.61102 a 16.41931,16.41931 0 1 1 -32.83861,0 16.41931,16.41931 0 1 1 32.83861,0 z"
         sodipodi:ry="16.41931"
         sodipodi:rx="16.41931"
         sodipodi:cy="305.61102"
         sodipodi:cx="566.20135"
         id="path6054"
         style="fill:#ff0000;fill-opacity:1;stroke:none;display:inline;enable-background:new"
         sodipodi:type="arc" />
      <path
         inkscape:export-ydpi="84.375"
         inkscape:export-xdpi="84.375"
         inkscape:export-filename="/Users/nathan/Documents/Xcode Projects/CharmQuark/CharmQuark/Images/Clock/iPhone-hd/green-small.png"
         sodipodi:type="arc"
         style="fill:#00ff00;fill-opacity:1;stroke:none;display:inline;enable-background:new"
         id="path6056"
         sodipodi:cx="566.20135"
         sodipodi:cy="305.61102"
         sodipodi:rx="16.41931"
         sodipodi:ry="16.41931"
         d="m 582.62066,305.61102 a 16.41931,16.41931 0 1 1 -32.83861,0 16.41931,16.41931 0 1 1 32.83861,0 z"
         transform="matrix(0,0.46370965,-0.46370965,0,342.57406,376.2773)" />
      <path
         inkscape:export-ydpi="84.375"
         inkscape:export-xdpi="84.375"
         inkscape:export-filename="/Users/nathan/Documents/Xcode Projects/CharmQuark/CharmQuark/Images/Clock/iPhone-hd/blue-small.png"
         transform="matrix(0,0.46370965,-0.46370965,0,312.34648,376.2773)"
         d="m 582.62066,305.61102 a 16.41931,16.41931 0 1 1 -32.83861,0 16.41931,16.41931 0 1 1 32.83861,0 z"
         sodipodi:ry="16.41931"
         sodipodi:rx="16.41931"
         sodipodi:cy="305.61102"
         sodipodi:cx="566.20135"
         id="path6058"
         style="fill:#0000ff;fill-opacity:1;stroke:none;display:inline;enable-background:new"
         sodipodi:type="arc" />
      <path
         inkscape:export-ydpi="84.375"
         inkscape:export-xdpi="84.375"
         inkscape:export-filename="/Users/nathan/Documents/Xcode Projects/CharmQuark/CharmQuark/Images/Clock/iPhone-hd/antired-small.png"
         sodipodi:type="arc"
         style="fill:#00fdfd;fill-opacity:1;stroke:none;display:inline;enable-background:new"
         id="path6060"
         sodipodi:cx="566.20135"
         sodipodi:cy="305.61102"
         sodipodi:rx="16.41931"
         sodipodi:ry="16.41931"
         d="m 582.62066,305.61102 a 16.41931,16.41931 0 1 1 -32.83861,0 16.41931,16.41931 0 1 1 32.83861,0 z"
         transform="matrix(0,0.46370965,-0.46370965,0,282.11889,376.2773)" />
      <path
         inkscape:export-ydpi="84.375"
         inkscape:export-xdpi="84.375"
         inkscape:export-filename="/Users/nathan/Documents/Xcode Projects/CharmQuark/CharmQuark/Images/Clock/iPhone-hd/antigreen-small.png"
         transform="matrix(0,0.46370965,-0.46370965,0,251.89131,376.2773)"
         d="m 582.62066,305.61102 a 16.41931,16.41931 0 1 1 -32.83861,0 16.41931,16.41931 0 1 1 32.83861,0 z"
         sodipodi:ry="16.41931"
         sodipodi:rx="16.41931"
         sodipodi:cy="305.61102"
         sodipodi:cx="566.20135"
         id="path6062"
         style="fill:#ff00ff;fill-opacity:1;stroke:none;display:inline;enable-background:new"
         sodipodi:type="arc" />
      <path
         inkscape:export-filename="/Users/nathan/Documents/Xcode Projects/CharmQuark/CharmQuark/Images/Clock/iPhone-hd/antiblue-small.png"
         inkscape:export-ydpi="84.375"
         inkscape:export-xdpi="84.375"
         sodipodi:type="arc"
         style="fill:#ffff00;fill-opacity:1;stroke:none;display:inline;enable-background:new"
         id="path6064"
         sodipodi:cx="566.20135"
         sodipodi:cy="305.61102"
         sodipodi:rx="16.41931"
         sodipodi:ry="16.41931"
         d="m 582.62066,305.61102 a 16.41931,16.41931 0 1 1 -32.83861,0 16.41931,16.41931 0 1 1 32.83861,0 z"
         transform="matrix(0,0.46370965,-0.46370965,0,221.66372,376.2773)" />
      <path
         inkscape:transform-center-y="-33.103448"
         inkscape:export-ydpi="180"
         inkscape:export-xdpi="180"
         inkscape:export-filename="/Users/nathan/Documents/Xcode Projects/CharmQuark/CharmQuark/Images/Clock/iPad-hd/white-small.png"
         sodipodi:type="arc"
         style="fill:#ffffff;fill-opacity:1;stroke:none;display:inline;enable-background:new"
         id="path6066"
         sodipodi:cx="566.20135"
         sodipodi:cy="305.61102"
         sodipodi:rx="16.41931"
         sodipodi:ry="16.41931"
         d="m 582.62066,305.61102 a 16.41931,16.41931 0 1 1 -32.83861,0 16.41931,16.41931 0 1 1 32.83861,0 z"
         transform="matrix(0,0.46370965,-0.46370965,0,191.43614,376.2773)" />
    </g>
    <g
       id="g3185"
       transform="translate(-31.668962,0)">
      <path
         sodipodi:type="arc"
         style="fill:#ff0000;fill-opacity:1;stroke:none;display:inline;enable-background:new"
         id="path6089"
         sodipodi:cx="566.20135"
         sodipodi:cy="305.61102"
         sodipodi:rx="16.41931"
         sodipodi:ry="16.41931"
         d="m 582.62066,305.61102 a 16.41931,16.41931 0 1 1 -32.83861,0 16.41931,16.41931 0 1 1 32.83861,0 z"
         transform="matrix(0,1.9489248,-1.9489248,0,1141.4915,-418.04389)"
         inkscape:export-filename="/Users/nathan/Documents/Xcode Projects/CharmQuark/CharmQuark/Images/Clock/iPhone-hd/red-small.png"
         inkscape:export-xdpi="84.379997"
         inkscape:export-ydpi="84.379997" />
      <path
         transform="matrix(0,1.9489248,-1.9489248,0,1062.4915,-418.04389)"
         d="m 582.62066,305.61102 a 16.41931,16.41931 0 1 1 -32.83861,0 16.41931,16.41931 0 1 1 32.83861,0 z"
         sodipodi:ry="16.41931"
         sodipodi:rx="16.41931"
         sodipodi:cy="305.61102"
         sodipodi:cx="566.20135"
         id="path6091"
         style="fill:#00ff00;fill-opacity:1;stroke:none;display:inline;enable-background:new"
         sodipodi:type="arc"
         inkscape:export-filename="/Users/nathan/Documents/Xcode Projects/CharmQuark/CharmQuark/Images/Clock/iPhone-hd/green-small.png"
         inkscape:export-xdpi="84.375"
         inkscape:export-ydpi="84.375" />
      <path
         sodipodi:type="arc"
         style="fill:#0000ff;fill-opacity:1;stroke:none;display:inline;enable-background:new"
         id="path6093"
         sodipodi:cx="566.20135"
         sodipodi:cy="305.61102"
         sodipodi:rx="16.41931"
         sodipodi:ry="16.41931"
         d="m 582.62066,305.61102 a 16.41931,16.41931 0 1 1 -32.83861,0 16.41931,16.41931 0 1 1 32.83861,0 z"
         transform="matrix(0,1.9489248,-1.9489248,0,983.4915,-418.04389)"
         inkscape:export-filename="/Users/nathan/Documents/Xcode Projects/CharmQuark/CharmQuark/Images/Clock/iPhone-hd/blue-small.png"
         inkscape:export-xdpi="84.375"
         inkscape:export-ydpi="84.375" />
      <path
         transform="matrix(0,1.9489248,-1.9489248,0,904.4915,-418.04389)"
         d="m 582.62066,305.61102 a 16.41931,16.41931 0 1 1 -32.83861,0 16.41931,16.41931 0 1 1 32.83861,0 z"
         sodipodi:ry="16.41931"
         sodipodi:rx="16.41931"
         sodipodi:cy="305.61102"
         sodipodi:cx="566.20135"
         id="path6095"
         style="fill:#00fdfd;fill-opacity:1;stroke:none;display:inline;enable-background:new"
         sodipodi:type="arc"
         inkscape:export-filename="/Users/nathan/Documents/Xcode Projects/CharmQuark/CharmQuark/Images/Clock/iPhone-hd/antired-small.png"
         inkscape:export-xdpi="84.375"
         inkscape:export-ydpi="84.375" />
      <path
         sodipodi:type="arc"
         style="fill:#ff00ff;fill-opacity:1;stroke:none;display:inline;enable-background:new"
         id="path6097"
         sodipodi:cx="566.20135"
         sodipodi:cy="305.61102"
         sodipodi:rx="16.41931"
         sodipodi:ry="16.41931"
         d="m 582.62066,305.61102 a 16.41931,16.41931 0 1 1 -32.83861,0 16.41931,16.41931 0 1 1 32.83861,0 z"
         transform="matrix(0,1.9489248,-1.9489248,0,825.4915,-418.04389)"
         inkscape:export-filename="/Users/nathan/Documents/Xcode Projects/CharmQuark/CharmQuark/Images/Clock/iPhone-hd/antigreen-small.png"
         inkscape:export-xdpi="84.375"
         inkscape:export-ydpi="84.375" />
      <path
         transform="matrix(0,1.9489248,-1.9489248,0,746.4915,-418.04389)"
         d="m 582.62066,305.61102 a 16.41931,16.41931 0 1 1 -32.83861,0 16.41931,16.41931 0 1 1 32.83861,0 z"
         sodipodi:ry="16.41931"
         sodipodi:rx="16.41931"
         sodipodi:cy="305.61102"
         sodipodi:cx="566.20135"
         id="path6099"
         style="fill:#ffff00;fill-opacity:1;stroke:none;display:inline;enable-background:new"
         sodipodi:type="arc"
         inkscape:export-xdpi="84.375"
         inkscape:export-ydpi="84.375"
         inkscape:export-filename="/Users/nathan/Documents/Xcode Projects/CharmQuark/CharmQuark/Images/Clock/iPhone-hd/antiblue-small.png" />
      <path
         transform="matrix(0,1.9489248,-1.9489248,0,667.4915,-418.04389)"
         d="m 582.62066,305.61102 a 16.41931,16.41931 0 1 1 -32.83861,0 16.41931,16.41931 0 1 1 32.83861,0 z"
         sodipodi:ry="16.41931"
         sodipodi:rx="16.41931"
         sodipodi:cy="305.61102"
         sodipodi:cx="566.20135"
         id="path6101"
         style="fill:#ffffff;fill-opacity:1;stroke:none;display:inline;enable-background:new"
         sodipodi:type="arc"
         inkscape:export-filename="/Users/nathan/Documents/Xcode Projects/CharmQuark/CharmQuark/Images/Clock/iPad-hd/white-small.png"
         inkscape:export-xdpi="180"
         inkscape:export-ydpi="180"
         inkscape:transform-center-y="-33.103448" />
    </g>
  </g>
  <g
     inkscape:groupmode="layer"
     id="layer3"
     inkscape:label="UI Elements"
     style="display:none"
     sodipodi:insensitive="true">
    <rect
       style="fill:#008000;fill-opacity:1;stroke:#999999;stroke-width:0.99999994;stroke-miterlimit:4;stroke-opacity:1;stroke-dasharray:none"
       id="rect3195"
       width="359.00092"
       height="45.874638"
       x="641.40259"
       y="59.321358"
       ry="14.680082"
       rx="14.680081"
       inkscape:export-filename="/Users/nathan/Documents/Xcode Projects/CharmQuark/CharmQuark/Images/Desktop.png"
       inkscape:export-xdpi="90"
       inkscape:export-ydpi="90" />
    <rect
       ry="0"
       y="88.510529"
       x="641.40326"
       height="496.31082"
       width="359.00049"
       id="rect3971"
       style="fill:#008000;fill-opacity:1;stroke:#999999;stroke-width:0.9995169;stroke-miterlimit:4;stroke-opacity:1;stroke-dasharray:none"
       inkscape:export-filename="/Users/nathan/Documents/Xcode Projects/CharmQuark/CharmQuark/Images/Desktop.png"
       inkscape:export-xdpi="90"
       inkscape:export-ydpi="90" />
    <rect
       style="fill:#000000;fill-opacity:1;stroke:none"
       id="rect3973"
       width="358"
       height="486"
       x="641.9035"
       y="88.821358"
       ry="0" />
    <rect
       style="fill:#ffffff;fill-opacity:1;stroke:none"
       id="rect5865"
       width="22.003212"
       height="22.003212"
       x="648.9035"
       y="63.821358"
       rx="0"
       ry="14.680082" />
    <path
       transform="matrix(0.57581224,0,0,0.57581224,393.57143,19.268204)"
       d="m 481.63627,96.480682 a 19.10066,19.10066 0 1 1 -38.20132,0 19.10066,19.10066 0 1 1 38.20132,0 z"
       sodipodi:ry="19.10066"
       sodipodi:rx="19.10066"
       sodipodi:cy="96.480682"
       sodipodi:cx="462.53561"
       id="path5861"
       style="fill:#0000ff;fill-opacity:1;stroke:none"
       sodipodi:type="arc" />
    <path
       sodipodi:type="arc"
       style="fill:#ffffff;fill-opacity:1;stroke:none"
       id="path4002"
       sodipodi:cx="462.53561"
       sodipodi:cy="96.480682"
       sodipodi:rx="19.10066"
       sodipodi:ry="19.10066"
       d="m 481.63627,96.480682 a 19.10066,19.10066 0 1 1 -38.20132,0 19.10066,19.10066 0 1 1 38.20132,0 z"
       transform="matrix(0.52362643,0,0,0.52362643,417.70923,24.303126)" />
    <path
       sodipodi:type="arc"
       style="fill:#ff0000;fill-opacity:1;stroke:none"
       id="path4004"
       sodipodi:cx="429.39035"
       sodipodi:cy="95.9189"
       sodipodi:rx="11.422944"
       sodipodi:ry="11.422944"
       d="m 440.81329,95.9189 a 11.422944,11.422944 0 1 1 -22.84588,0 11.422944,11.422944 0 1 1 22.84588,0 z"
       transform="matrix(0.61294233,0,0,0.61294233,396.71357,16.030207)" />
    <path
       transform="matrix(0.4378562,0,0,0.4378562,471.89387,32.824276)"
       d="m 440.81329,95.9189 a 11.422944,11.422944 0 1 1 -22.84588,0 11.422944,11.422944 0 1 1 22.84588,0 z"
       sodipodi:ry="11.422944"
       sodipodi:rx="11.422944"
       sodipodi:cy="95.9189"
       sodipodi:cx="429.39035"
       id="path4008"
       style="fill:#00ff00;fill-opacity:1;stroke:none"
       sodipodi:type="arc" />
    <path
       sodipodi:type="arc"
       style="fill:#000000;fill-opacity:1;stroke:none"
       id="path4010"
       sodipodi:cx="429.39035"
       sodipodi:cy="95.9189"
       sodipodi:rx="11.422944"
       sodipodi:ry="11.422944"
       d="m 440.81329,95.9189 a 11.422944,11.422944 0 1 1 -22.84588,0 11.422944,11.422944 0 1 1 22.84588,0 z"
       transform="matrix(0.35003182,0,0,0.35003182,509.60481,41.248294)" />
  </g>
  <g
     inkscape:groupmode="layer"
     id="layer6"
     inkscape:label="Sample Text"
     sodipodi:insensitive="true"
     style="display:none">
    <g
       style="display:inline;enable-background:new"
       id="g3996"
       transform="translate(75.305344,8.4779782)">
      <text
         xml:space="preserve"
         style="font-size:20px;font-style:normal;font-variant:normal;font-weight:normal;font-stretch:normal;line-height:125%;letter-spacing:0px;word-spacing:0px;fill:#000000;fill-opacity:1;stroke:none;font-family:American Typewriter;-inkscape-font-specification:American Typewriter"
         x="600.62897"
         y="73.092422"
         id="text3991"
         sodipodi:linespacing="125%"><tspan
           sodipodi:role="line"
           id="tspan3993"
           x="600.62897"
           y="73.092422">Charm Quark</tspan></text>
      <text
         sodipodi:linespacing="125%"
         id="text3987"
         y="72.343376"
         x="600.25446"
         style="font-size:20px;font-style:normal;font-variant:normal;font-weight:normal;font-stretch:normal;line-height:125%;letter-spacing:0px;word-spacing:0px;fill:#ffffff;fill-opacity:1;stroke:none;font-family:American Typewriter;-inkscape-font-specification:American Typewriter"
         xml:space="preserve"><tspan
           y="72.343376"
           x="600.25446"
           id="tspan3989"
           sodipodi:role="line">Charm Quark</tspan></text>
    </g>
    <text
       xml:space="preserve"
       style="font-size:20px;font-style:normal;font-variant:normal;font-weight:normal;font-stretch:normal;line-height:125%;letter-spacing:0px;word-spacing:0px;fill:#ffffff;fill-opacity:1;stroke:none;display:inline;enable-background:new;font-family:Krungthep;-inkscape-font-specification:Krungthep"
       x="680.9035"
       y="144.82135"
       id="text4018"
       sodipodi:linespacing="125%"><tspan
         sodipodi:role="line"
         id="tspan4020"
         x="680.9035"
         y="144.82135">$&gt; This is some text</tspan></text>
  </g>
  <g
     inkscape:groupmode="layer"
     id="layer5"
     inkscape:label="Inner Detector Base"
     style="display:inline"
     sodipodi:insensitive="true">
    <path
       sodipodi:type="arc"
       style="fill:#800000;fill-opacity:1;stroke:#999999;stroke-width:0.41580597;stroke-linecap:round;stroke-linejoin:round;stroke-miterlimit:4;stroke-opacity:1;stroke-dasharray:none;display:inline;enable-background:new"
       id="path4022"
       sodipodi:cx="742.5"
       sodipodi:cy="300.5"
       sodipodi:rx="97.5"
       sodipodi:ry="97.5"
       d="m 840,300.5 a 97.5,97.5 0 1 1 -195,0 97.5,97.5 0 1 1 195,0 z"
       transform="matrix(2.4049677,0,0,2.4049677,-1021.5572,-338.69281)" />
    <path
       d="m 840,300.5 a 97.5,97.5 0 1 1 -195,0 97.5,97.5 0 1 1 195,0 z"
       sodipodi:ry="97.5"
       sodipodi:rx="97.5"
       sodipodi:cy="300.5"
       sodipodi:cx="742.5"
       id="path5471"
       style="fill:#0000ff;fill-opacity:1;stroke:#999999;stroke-width:1.47422111;stroke-linecap:round;stroke-linejoin:round;stroke-miterlimit:4;stroke-opacity:1;stroke-dasharray:none;display:inline;enable-background:new"
       sodipodi:type="arc"
       transform="matrix(0.67832424,0,0,0.67832424,260.47557,180.16356)" />
    <path
       transform="matrix(0.41932784,0,0,0.41932784,452.7804,257.99197)"
       sodipodi:type="arc"
       style="fill:#333333;fill-opacity:1;stroke:#999999;stroke-width:2.38476896;stroke-linecap:round;stroke-linejoin:round;stroke-miterlimit:4;stroke-opacity:1;stroke-dasharray:none;display:inline;enable-background:new"
       id="path5475"
       sodipodi:cx="742.5"
       sodipodi:cy="300.5"
       sodipodi:rx="97.5"
       sodipodi:ry="97.5"
       d="m 840,300.5 a 97.5,97.5 0 1 1 -195,0 97.5,97.5 0 1 1 195,0 z" />
    <path
       d="m 840,300.5 a 97.5,97.5 0 1 1 -195,0 97.5,97.5 0 1 1 195,0 z"
       sodipodi:ry="97.5"
       sodipodi:rx="97.5"
       sodipodi:cy="300.5"
       sodipodi:cx="742.5"
       id="path5477"
       style="fill:#ff0000;fill-opacity:1;stroke:#999999;stroke-width:5.40547419;stroke-linecap:round;stroke-linejoin:round;stroke-miterlimit:4;stroke-opacity:1;stroke-dasharray:none;display:inline;enable-background:new"
       sodipodi:type="arc"
       transform="matrix(0.18499764,0,0,0.18499764,626.77055,328.40819)" />
  </g>
  <g
     inkscape:groupmode="layer"
     id="layer7"
     inkscape:label="Inner Detector Lines"
     style="display:inline"
     sodipodi:insensitive="true">
    <g
       style="display:inline;enable-background:new"
       id="g5749"
       transform="matrix(2.303969,0,0,2.303969,-946.56558,-308.34269)">
      <g
         style="stroke:none"
         id="g5491">
        <rect
           style="fill:#00ff00;stroke:none;display:inline;enable-background:new"
           id="rect5479"
           width="5"
           height="36.695171"
           x="740"
           y="231.30482" />
        <rect
           y="333"
           x="740"
           height="43.580688"
           width="5"
           id="rect5481"
           style="fill:#00ff00;stroke:none;display:inline;enable-background:new" />
      </g>
      <g
         style="stroke:none"
         transform="matrix(0.9814429,0.19175462,-0.19175462,0.9814429,71.400911,-136.8014)"
         id="g5501">
        <rect
           y="227.94452"
           x="740"
           height="40.055481"
           width="5"
           id="rect5503"
           style="fill:#00ff00;stroke:none;display:inline;enable-background:new" />
        <rect
           style="fill:#00ff00;stroke:none;display:inline;enable-background:new"
           id="rect5505"
           width="5"
           height="43.300014"
           x="740"
           y="333" />
      </g>
      <g
         style="stroke:none"
         id="g5507"
         transform="matrix(0.92477296,0.38051932,-0.38051932,0.92477296,170.20213,-259.92987)">
        <rect
           style="fill:#00ff00;stroke:none;display:inline;enable-background:new"
           id="rect5509"
           width="5"
           height="18.687302"
           x="740"
           y="249.3127" />
        <rect
           y="333"
           x="740"
           height="53.287994"
           width="5"
           id="rect5511"
           style="fill:#00ff00;stroke:none;display:inline;enable-background:new" />
      </g>
      <g
         style="stroke:none"
         transform="matrix(0.82925729,0.55886702,-0.55886702,0.82925729,294.716,-363.65058)"
         id="g5513">
        <rect
           y="237.38036"
           x="740"
           height="30.61965"
           width="5"
           id="rect5515"
           style="fill:#00ff00;stroke:none;display:inline;enable-background:new" />
        <rect
           style="fill:#00ff00;stroke:none;display:inline;enable-background:new"
           id="rect5517"
           width="5"
           height="39.690487"
           x="740"
           y="333" />
      </g>
      <g
         style="stroke:none"
         id="g5519"
         transform="matrix(0.70594481,0.70826685,-0.70826685,0.70594481,431.17015,-437.52455)">
        <rect
           style="fill:#00ff00;stroke:none;display:inline;enable-background:new"
           id="rect5521"
           width="5"
           height="45.390556"
           x="740"
           y="222.60944" />
        <rect
           y="333"
           x="740"
           height="52.507095"
           width="5"
           id="rect5523"
           style="fill:#00ff00;stroke:none;display:inline;enable-background:new" />
      </g>
      <g
         style="stroke:none"
         transform="matrix(0.43588293,0.90000338,-0.90000338,0.43588293,689.30792,-498.73532)"
         id="g5525">
        <rect
           transform="matrix(0.99122901,-0.13215537,0.13215537,0.99122901,0,0)"
           y="304.2309"
           x="693.83661"
           height="59.258793"
           width="4.9382329"
           id="rect5527"
           style="fill:#00ff00;stroke:none;display:inline;enable-background:new" />
        <rect
           transform="matrix(0.99122901,-0.13215537,0.13215537,0.99122901,0,0)"
           style="fill:#00ff00;stroke:none;display:inline;enable-background:new"
           id="rect5529"
           width="5"
           height="51.4688"
           x="693.77484"
           y="428.48969" />
      </g>
      <g
         style="stroke:none"
         id="g5531"
         transform="matrix(0.18628024,0.98249666,-0.98249666,0.18628024,899.4272,-484.98097)">
        <rect
           style="fill:#00ff00;stroke:none;display:inline;enable-background:new"
           id="rect5533"
           width="5"
           height="28.40934"
           x="740"
           y="239.59065" />
        <rect
           y="333"
           x="740"
           height="17.481266"
           width="5"
           id="rect5535"
           style="fill:#00ff00;stroke:none;display:inline;enable-background:new" />
      </g>
      <g
         style="stroke:none"
         transform="matrix(0.38236169,0.92401274,-0.92401274,0.38236169,736.26231,-500.47914)"
         id="g5537">
        <rect
           y="217.33253"
           x="740"
           height="50.667461"
           width="5"
           id="rect5539"
           style="fill:#00ff00;stroke:none;display:inline;enable-background:new" />
        <rect
           style="fill:#00ff00;stroke:none;display:inline;enable-background:new"
           id="rect5541"
           width="5"
           height="27.968971"
           x="740"
           y="333" />
      </g>
      <g
         style="stroke:none"
         transform="matrix(0,1,-1,0,1043,-442)"
         id="g5591">
        <rect
           y="248.78345"
           x="740"
           height="19.216551"
           width="5"
           id="rect5593"
           style="fill:#00ff00;stroke:none;display:inline;enable-background:new" />
        <rect
           style="fill:#00ff00;stroke:none;display:inline;enable-background:new"
           id="rect5595"
           width="5"
           height="9.6827583"
           x="740"
           y="333" />
      </g>
      <g
         style="stroke:none"
         id="g5597"
         transform="matrix(-0.19175462,0.9814429,-0.9814429,-0.19175462,1179.8014,-370.59909)">
        <rect
           style="fill:#00ff00;stroke:none;display:inline;enable-background:new"
           id="rect5599"
           width="5"
           height="9.1050501"
           x="740"
           y="258.89496" />
        <rect
           y="333"
           x="740"
           height="32.485226"
           width="5"
           id="rect5601"
           style="fill:#00ff00;stroke:none;display:inline;enable-background:new" />
      </g>
      <g
         style="stroke:none"
         transform="matrix(-0.38051932,0.92477296,-0.92477296,-0.38051932,1302.9299,-271.79787)"
         id="g5603">
        <rect
           y="230.35542"
           x="740"
           height="37.644577"
           width="5"
           id="rect5605"
           style="fill:#00ff00;stroke:none;display:inline;enable-background:new" />
        <rect
           style="fill:#00ff00;stroke:none;display:inline;enable-background:new"
           id="rect5607"
           width="5"
           height="36.664955"
           x="740"
           y="333" />
      </g>
      <g
         style="stroke:none"
         id="g5609"
         transform="matrix(-0.55886702,0.82925729,-0.82925729,-0.55886702,1406.6506,-147.284)">
        <rect
           style="fill:#00ff00;stroke:none;display:inline;enable-background:new"
           id="rect5611"
           width="5"
           height="49.410812"
           x="740"
           y="218.58919" />
        <rect
           y="333"
           x="740"
           height="34.123833"
           width="5"
           id="rect5613"
           style="fill:#00ff00;stroke:none;display:inline;enable-background:new" />
      </g>
      <g
         style="stroke:none"
         transform="matrix(-0.70826685,0.70594481,-0.70594481,-0.70826685,1480.5245,-10.829831)"
         id="g5615">
        <rect
           y="238.33691"
           x="740"
           height="29.663082"
           width="5"
           id="rect5617"
           style="fill:#00ff00;stroke:none;display:inline;enable-background:new" />
        <rect
           style="fill:#00ff00;stroke:none;display:inline;enable-background:new"
           id="rect5619"
           width="5"
           height="39.021835"
           x="740"
           y="333" />
      </g>
      <g
         style="stroke:none"
         id="g5621"
         transform="matrix(-0.90000338,0.43588293,-0.43588293,-0.90000338,1541.7353,247.30795)">
        <rect
           style="fill:#00ff00;stroke:none;display:inline;enable-background:new"
           id="rect5623"
           width="5"
           height="42.220718"
           x="693.77484"
           y="321.26895"
           transform="matrix(0.99122901,-0.13215537,0.13215537,0.99122901,0,0)" />
        <rect
           y="428.48969"
           x="693.77484"
           height="45.00592"
           width="5"
           id="rect5625"
           style="fill:#00ff00;stroke:none;display:inline;enable-background:new"
           transform="matrix(0.99122901,-0.13215537,0.13215537,0.99122901,0,0)" />
      </g>
      <g
         style="stroke:none"
         transform="matrix(-0.98249666,0.18628024,-0.18628024,-0.98249666,1527.981,457.42718)"
         id="g5627">
        <rect
           y="236.0737"
           x="740"
           height="31.926304"
           width="5"
           id="rect5629"
           style="fill:#00ff00;stroke:none;display:inline;enable-background:new" />
        <rect
           style="fill:#00ff00;stroke:none;display:inline;enable-background:new"
           id="rect5631"
           width="5"
           height="44.388466"
           x="740"
           y="333" />
      </g>
      <g
         style="stroke:none"
         id="g5633"
         transform="matrix(-0.92401274,0.38236169,-0.38236169,-0.92401274,1543.4792,294.26228)">
        <rect
           style="fill:#00ff00;stroke:none;display:inline;enable-background:new"
           id="rect5635"
           width="5"
           height="46.920933"
           x="740"
           y="221.07907" />
        <rect
           y="333"
           x="740"
           height="54.245255"
           width="5"
           id="rect5637"
           style="fill:#00ff00;stroke:none;display:inline;enable-background:new" />
      </g>
    </g>
  </g>
  <g
     inkscape:groupmode="layer"
     id="layer9"
     inkscape:label="Outer Detector"
     style="display:none">
    <path
       sodipodi:type="arc"
       style="fill:#000000;fill-opacity:0.57599996;stroke:none"
       id="path6103"
       sodipodi:cx="763.26898"
       sodipodi:cy="385.31418"
       sodipodi:rx="300.68173"
       sodipodi:ry="300.68173"
       d="m 1063.9507,385.31418 a 300.68173,300.68173 0 1 1 -601.36345,0 300.68173,300.68173 0 1 1 601.36345,0 z" />
  </g>
</svg>
