<?xml version="1.0" encoding="UTF-8" standalone="no"?>
<!-- Created with Inkscape (http://www.inkscape.org/) -->

<svg
   xmlns:osb="http://www.openswatchbook.org/uri/2009/osb"
   xmlns:dc="http://purl.org/dc/elements/1.1/"
   xmlns:cc="http://creativecommons.org/ns#"
   xmlns:rdf="http://www.w3.org/1999/02/22-rdf-syntax-ns#"
   xmlns:svg="http://www.w3.org/2000/svg"
   xmlns="http://www.w3.org/2000/svg"
   xmlns:xlink="http://www.w3.org/1999/xlink"
   xmlns:sodipodi="http://sodipodi.sourceforge.net/DTD/sodipodi-0.dtd"
   xmlns:inkscape="http://www.inkscape.org/namespaces/inkscape"
   width="1024"
   height="768"
   id="svg3101"
   version="1.1"
   inkscape:version="0.48+devel r9906"
   sodipodi:docname="SpriteWorksheet.svg"
   style="display:inline;enable-background:new">
  <defs
     id="defs3103">
    <linearGradient
       id="linearGradient4024"
       osb:paint="solid">
      <stop
         style="stop-color:#800000;stop-opacity:1;"
         offset="0"
         id="stop4026" />
    </linearGradient>
    <linearGradient
       id="linearGradient5970"
       osb:paint="solid">
      <stop
         style="stop-color:#7bc9fd;stop-opacity:1;"
         offset="0"
         id="stop5972" />
    </linearGradient>
  </defs>
  <sodipodi:namedview
     id="base"
     pagecolor="#000000"
     bordercolor="#666666"
     borderopacity="1.0"
     inkscape:pageopacity="0"
     inkscape:pageshadow="2"
     inkscape:zoom="1.03125"
     inkscape:cx="512"
     inkscape:cy="384"
     inkscape:document-units="px"
     inkscape:current-layer="layer3"
     showgrid="false"
     inkscape:window-width="1681"
     inkscape:window-height="980"
     inkscape:window-x="87"
     inkscape:window-y="15"
     inkscape:window-maximized="0"
     units="px"
     inkscape:snap-bbox="true"
     showborder="false"
     borderlayer="false"
     inkscape:snap-grids="true">
    <inkscape:grid
       type="xygrid"
       id="grid3967"
       empspacing="5"
       visible="true"
       enabled="true"
       snapvisiblegridlinesonly="true" />
  </sodipodi:namedview>
  <metadata
     id="metadata3106">
    <rdf:RDF>
      <cc:Work
         rdf:about="">
        <dc:format>image/svg+xml</dc:format>
        <dc:type
           rdf:resource="http://purl.org/dc/dcmitype/StillImage" />
        <dc:title></dc:title>
      </cc:Work>
    </rdf:RDF>
  </metadata>
  <g
     inkscape:label="Screen Ratios"
     inkscape:groupmode="layer"
     id="layer1"
     transform="translate(0,-284.36218)"
     style="display:inline"
     sodipodi:insensitive="true">
    <rect
       style="fill:#323232;fill-opacity:1;stroke:none"
       id="rect3128"
       width="1024"
       height="768"
       x="0"
       y="284.36218" />
    <rect
       style="fill:#505050;fill-opacity:1;stroke:none"
       id="rect3130"
       width="1024"
       height="682.66663"
       x="0"
       y="327.02887" />
    <text
       xml:space="preserve"
       style="font-size:5px;font-style:normal;font-variant:normal;font-weight:normal;font-stretch:normal;line-height:125%;letter-spacing:0px;word-spacing:0px;fill:#000000;fill-opacity:1;stroke:none;font-family:American Typewriter;-inkscape-font-specification:American Typewriter"
       x="897.23584"
       y="59.321381"
       id="text3901"
       sodipodi:linespacing="125%"
       transform="translate(0,284.36218)"><tspan
         sodipodi:role="line"
         id="tspan3903"
         x="897.23584"
         y="59.321381" /></text>
  </g>
  <g
     inkscape:groupmode="layer"
     id="layer10"
     inkscape:label="Notes"
     sodipodi:insensitive="true"
     style="display:none">
    <text
       transform="translate(0,-284.36218)"
       xml:space="preserve"
       style="font-size:5px;font-style:normal;font-variant:normal;font-weight:normal;font-stretch:normal;line-height:125%;letter-spacing:0px;word-spacing:0px;fill:#c6cbcc;fill-opacity:1;stroke:none;display:inline;enable-background:new;font-family:American Typewriter;-inkscape-font-specification:American Typewriter"
       x="15.889655"
       y="350.03943"
       id="text3905"
       sodipodi:linespacing="125%"><tspan
         sodipodi:role="line"
         id="tspan3907"
         x="15.889655"
         y="350.03943"
         style="font-size:16px;fill:#c6cbcc;fill-opacity:1">iPhone (42.19dpi) iPhone-hd (84.38dpi)</tspan></text>
    <text
       transform="translate(0,-284.36218)"
       xml:space="preserve"
       style="font-size:5px;font-style:normal;font-variant:normal;font-weight:normal;font-stretch:normal;line-height:125%;letter-spacing:0px;word-spacing:0px;fill:#c6cbcc;fill-opacity:1;stroke:none;display:inline;enable-background:new;font-family:American Typewriter;-inkscape-font-specification:American Typewriter"
       x="15.889655"
       y="311.90424"
       id="text3909"
       sodipodi:linespacing="125%"><tspan
         sodipodi:role="line"
         id="tspan3911"
         x="15.889655"
         y="311.90424"
         style="font-size:16px;fill:#c6cbcc;fill-opacity:1">iPad (90dpi) iPad-hd (180dpi)</tspan></text>
  </g>
  <g
     inkscape:groupmode="layer"
     id="layer2"
     inkscape:label="Map"
     style="display:none"
     sodipodi:insensitive="true">
    <g
       id="g3995"
       style="stroke:#c6cbcc;stroke-width:8;stroke-miterlimit:4;stroke-opacity:1;stroke-dasharray:none"
       transform="matrix(0,1,-1,0,649.42321,101.09816)"
       inkscape:export-filename="/Users/nathan/Documents/Xcode Projects/CharmQuark/CharmQuark/Images/Clock/iPhone-hd/LHCMap.png"
       inkscape:export-xdpi="84.379997"
       inkscape:export-ydpi="84.379997">
      <path
         transform="matrix(1.1580327,0,0,1.1580327,-220.66508,-146.70299)"
         d="m 628.17104,448.61792 a 193.32414,193.32414 0 1 1 -386.64829,0 193.32414,193.32414 0 1 1 386.64829,0 z"
         sodipodi:ry="193.32414"
         sodipodi:rx="193.32414"
         sodipodi:cy="448.61792"
         sodipodi:cx="434.84689"
         id="path3985"
         style="fill:none;stroke:#c6cbcc;stroke-width:6.90826797;stroke-linecap:round;stroke-linejoin:round;stroke-miterlimit:4;stroke-opacity:1;stroke-dasharray:none"
         sodipodi:type="arc" />
      <path
         sodipodi:type="arc"
         style="fill:none;stroke:#c6cbcc;stroke-width:15.49795628;stroke-linecap:round;stroke-linejoin:round;stroke-miterlimit:4;stroke-opacity:1;stroke-dasharray:none"
         id="path3987"
         sodipodi:cx="434.84689"
         sodipodi:cy="448.61792"
         sodipodi:rx="193.32414"
         sodipodi:ry="193.32414"
         d="m 628.17104,448.61792 a 193.32414,193.32414 0 1 1 -386.64829,0 193.32414,193.32414 0 1 1 386.64829,0 z"
         transform="matrix(0.51619708,0,0,0.51619708,60.275219,305.61594)" />
      <path
         sodipodi:nodetypes="cc"
         inkscape:connector-curvature="0"
         id="path3989"
         d="m 364.29119,477.00876 c 38.86042,55.41913 96.30592,41.57677 128.0079,-24.56177"
         style="fill:none;stroke:#c6cbcc;stroke-width:8;stroke-linecap:round;stroke-linejoin:round;stroke-miterlimit:4;stroke-opacity:1;stroke-dasharray:none" />
      <path
         sodipodi:nodetypes="cc"
         inkscape:connector-curvature="0"
         id="path3991"
         d="M 260.86967,634.05306 C 172.87879,610.79271 109.58369,550.71941 78.520257,464.53923"
         style="fill:none;stroke:#c6cbcc;stroke-width:8;stroke-linecap:round;stroke-linejoin:round;stroke-miterlimit:4;stroke-opacity:1;stroke-dasharray:none" />
      <path
         sodipodi:nodetypes="cc"
         inkscape:connector-curvature="0"
         id="path3993"
         d="m 191.90119,500.72593 c -21.98573,60.63238 -23.84455,137.15439 -23.58475,147.99918"
         style="fill:none;stroke:#c6cbcc;stroke-width:8;stroke-linecap:round;stroke-linejoin:round;stroke-miterlimit:4;stroke-opacity:1;stroke-dasharray:none" />
    </g>
  </g>
  <g
     style="display:inline"
     inkscape:label="Map (Small)"
     id="g6105"
     inkscape:groupmode="layer"
     sodipodi:insensitive="true">
    <g
       inkscape:export-ydpi="90"
       inkscape:export-xdpi="90"
       inkscape:export-filename="/Users/nathan/Documents/Xcode Projects/CharmQuark/CharmQuark/Images/Clock/iPad/LHCMap.png"
       transform="matrix(0,0.77771819,-0.77812441,0,505.78572,54.769841)"
       style="stroke:#c6cbcc;stroke-width:10.28381729;stroke-miterlimit:4;stroke-opacity:1;stroke-dasharray:none"
       id="lhcmap"
       inkscape:label="#g6107">
      <path
         sodipodi:type="arc"
         style="fill:none;stroke:#c6cbcc;stroke-width:8.88042068;stroke-linecap:round;stroke-linejoin:round;stroke-miterlimit:4;stroke-opacity:1;stroke-dasharray:none"
         id="path6109"
         sodipodi:cx="434.84689"
         sodipodi:cy="448.61792"
         sodipodi:rx="193.32414"
         sodipodi:ry="193.32414"
         d="m 628.17104,448.61792 a 193.32414,193.32414 0 1 1 -386.64829,0 193.32414,193.32414 0 1 1 386.64829,0 z"
         transform="matrix(1.1580327,0,0,1.1580327,-220.66508,-146.70299)" />
      <path
         transform="matrix(0.51619708,0,0,0.51619708,60.275219,305.61594)"
         d="m 628.17104,448.61792 a 193.32414,193.32414 0 1 1 -386.64829,0 193.32414,193.32414 0 1 1 386.64829,0 z"
         sodipodi:ry="193.32414"
         sodipodi:rx="193.32414"
         sodipodi:cy="448.61792"
         sodipodi:cx="434.84689"
         id="path6111"
         style="fill:none;stroke:#c6cbcc;stroke-width:19.92226791;stroke-linecap:round;stroke-linejoin:round;stroke-miterlimit:4;stroke-opacity:1;stroke-dasharray:none"
         sodipodi:type="arc" />
      <path
         style="fill:none;stroke:#c6cbcc;stroke-width:10.28381729;stroke-linecap:round;stroke-linejoin:round;stroke-miterlimit:4;stroke-opacity:1;stroke-dasharray:none"
         d="m 364.29119,477.00876 c 38.86042,55.41913 96.30592,41.57677 128.0079,-24.56177"
         id="path6113"
         inkscape:connector-curvature="0"
         sodipodi:nodetypes="cc" />
      <path
         style="fill:none;stroke:#c6cbcc;stroke-width:10.28381729;stroke-linecap:round;stroke-linejoin:round;stroke-miterlimit:4;stroke-opacity:1;stroke-dasharray:none"
         d="M 260.86967,634.05306 C 172.87879,610.79271 109.58369,550.71941 78.520257,464.53923"
         id="path6115"
         inkscape:connector-curvature="0"
         sodipodi:nodetypes="cc" />
      <path
         style="fill:none;stroke:#c6cbcc;stroke-width:10.28381729;stroke-linecap:round;stroke-linejoin:round;stroke-miterlimit:4;stroke-opacity:1;stroke-dasharray:none"
         d="m 191.90119,500.72593 c -21.98573,60.63238 -23.84455,137.15439 -23.58475,147.99918"
         id="path6117"
         inkscape:connector-curvature="0"
         sodipodi:nodetypes="cc" />
    </g>
  </g>
  <g
     inkscape:groupmode="layer"
     id="layer4"
     inkscape:label="Packets"
     style="display:inline">
    <path
       sodipodi:type="arc"
       style="fill:#ff0000;fill-opacity:1;stroke:none;display:inline;enable-background:new"
       id="red-small"
       sodipodi:cx="566.20135"
       sodipodi:cy="305.61102"
       sodipodi:rx="16.41931"
       sodipodi:ry="16.41931"
       d="m 582.62066,305.61102 a 16.41931,16.41931 0 1 1 -32.83861,0 16.41931,16.41931 0 1 1 32.83861,0 z"
       transform="matrix(0,0.46370965,0.46370965,0,-125.89135,376.2773)"
       inkscape:export-filename="/Users/nathan/Documents/Xcode Projects/CharmQuark/CharmQuark/Images/Clock/iPhone-hd/red-small.png"
       inkscape:export-xdpi="84.379997"
       inkscape:export-ydpi="84.379997"
       inkscape:label="#path6054" />
    <path
       transform="matrix(0,0.46370965,0.46370965,0,-95.66376,376.2773)"
       d="m 582.62066,305.61102 a 16.41931,16.41931 0 1 1 -32.83861,0 16.41931,16.41931 0 1 1 32.83861,0 z"
       sodipodi:ry="16.41931"
       sodipodi:rx="16.41931"
       sodipodi:cy="305.61102"
       sodipodi:cx="566.20135"
       id="green-small"
       style="fill:#00ff00;fill-opacity:1;stroke:none;display:inline;enable-background:new"
       sodipodi:type="arc"
       inkscape:export-filename="/Users/nathan/Documents/Xcode Projects/CharmQuark/CharmQuark/Images/Clock/iPhone-hd/green-small.png"
       inkscape:export-xdpi="84.375"
       inkscape:export-ydpi="84.375"
       inkscape:label="#path6056" />
    <path
       sodipodi:type="arc"
       style="fill:#0000ff;fill-opacity:1;stroke:none;display:inline;enable-background:new"
       id="blue-small"
       sodipodi:cx="566.20135"
       sodipodi:cy="305.61102"
       sodipodi:rx="16.41931"
       sodipodi:ry="16.41931"
       d="m 582.62066,305.61102 a 16.41931,16.41931 0 1 1 -32.83861,0 16.41931,16.41931 0 1 1 32.83861,0 z"
       transform="matrix(0,0.46370965,0.46370965,0,-65.43618,376.2773)"
       inkscape:export-filename="/Users/nathan/Documents/Xcode Projects/CharmQuark/CharmQuark/Images/Clock/iPhone-hd/blue-small.png"
       inkscape:export-xdpi="84.375"
       inkscape:export-ydpi="84.375"
       inkscape:label="#path6058" />
    <path
       transform="matrix(0,0.46370965,0.46370965,0,-35.20859,376.2773)"
       d="m 582.62066,305.61102 a 16.41931,16.41931 0 1 1 -32.83861,0 16.41931,16.41931 0 1 1 32.83861,0 z"
       sodipodi:ry="16.41931"
       sodipodi:rx="16.41931"
       sodipodi:cy="305.61102"
       sodipodi:cx="566.20135"
       id="antired-small"
       style="fill:#00fdfd;fill-opacity:1;stroke:none;display:inline;enable-background:new"
       sodipodi:type="arc"
       inkscape:export-filename="/Users/nathan/Documents/Xcode Projects/CharmQuark/CharmQuark/Images/Clock/iPhone-hd/antired-small.png"
       inkscape:export-xdpi="84.375"
       inkscape:export-ydpi="84.375"
       inkscape:label="#path6060" />
    <path
       sodipodi:type="arc"
       style="fill:#ff00ff;fill-opacity:1;stroke:none;display:inline;enable-background:new"
       id="antigreen-small"
       sodipodi:cx="566.20135"
       sodipodi:cy="305.61102"
       sodipodi:rx="16.41931"
       sodipodi:ry="16.41931"
       d="m 582.62066,305.61102 a 16.41931,16.41931 0 1 1 -32.83861,0 16.41931,16.41931 0 1 1 32.83861,0 z"
       transform="matrix(0,0.46370965,0.46370965,0,-4.98101,376.2773)"
       inkscape:export-filename="/Users/nathan/Documents/Xcode Projects/CharmQuark/CharmQuark/Images/Clock/iPhone-hd/antigreen-small.png"
       inkscape:export-xdpi="84.375"
       inkscape:export-ydpi="84.375"
       inkscape:label="#path6062" />
    <path
       transform="matrix(0,0.46370965,0.46370965,0,25.24658,376.2773)"
       d="m 582.62066,305.61102 a 16.41931,16.41931 0 1 1 -32.83861,0 16.41931,16.41931 0 1 1 32.83861,0 z"
       sodipodi:ry="16.41931"
       sodipodi:rx="16.41931"
       sodipodi:cy="305.61102"
       sodipodi:cx="566.20135"
       id="antiblue-small"
       style="fill:#ffff00;fill-opacity:1;stroke:none;display:inline;enable-background:new"
       sodipodi:type="arc"
       inkscape:export-xdpi="84.375"
       inkscape:export-ydpi="84.375"
       inkscape:export-filename="/Users/nathan/Documents/Xcode Projects/CharmQuark/CharmQuark/Images/Clock/iPhone-hd/antiblue-small.png"
       inkscape:label="#path6064" />
    <path
       transform="matrix(0,0.46370965,0.46370965,0,55.47416,376.2773)"
       d="m 582.62066,305.61102 a 16.41931,16.41931 0 1 1 -32.83861,0 16.41931,16.41931 0 1 1 32.83861,0 z"
       sodipodi:ry="16.41931"
       sodipodi:rx="16.41931"
       sodipodi:cy="305.61102"
       sodipodi:cx="566.20135"
       id="white-small"
       style="fill:#ffffff;fill-opacity:1;stroke:none;display:inline;enable-background:new"
       sodipodi:type="arc"
       inkscape:export-filename="/Users/nathan/Documents/Xcode Projects/CharmQuark/CharmQuark/Images/Clock/iPad-hd/white-small.png"
       inkscape:export-xdpi="180"
       inkscape:export-ydpi="180"
       inkscape:transform-center-y="-33.103448"
       inkscape:label="#path6066" />
    <path
       inkscape:export-ydpi="180"
       inkscape:export-xdpi="180"
       inkscape:export-filename="/Users/nathan/Documents/Xcode Projects/CharmQuark/CharmQuark/Images/Particles/iPad-hd/red.png"
       transform="matrix(0,1.9489248,1.9489248,0,-555.40326,-418.04389)"
       d="m 582.62066,305.61102 a 16.41931,16.41931 0 1 1 -32.83861,0 16.41931,16.41931 0 1 1 32.83861,0 z"
       sodipodi:ry="16.41931"
       sodipodi:rx="16.41931"
       sodipodi:cy="305.61102"
       sodipodi:cx="566.20135"
       id="red"
       style="fill:#ff0000;fill-opacity:1;stroke:none;display:inline;enable-background:new"
       sodipodi:type="arc"
       inkscape:label="#path6089" />
    <path
       inkscape:export-ydpi="180"
       inkscape:export-xdpi="180"
       inkscape:export-filename="/Users/nathan/Documents/Xcode Projects/CharmQuark/CharmQuark/Images/Particles/iPad-hd/green.png"
       sodipodi:type="arc"
       style="fill:#00ff00;fill-opacity:1;stroke:none;display:inline;enable-background:new"
       id="green"
       sodipodi:cx="566.20135"
       sodipodi:cy="305.61102"
       sodipodi:rx="16.41931"
       sodipodi:ry="16.41931"
       d="m 582.62066,305.61102 a 16.41931,16.41931 0 1 1 -32.83861,0 16.41931,16.41931 0 1 1 32.83861,0 z"
       transform="matrix(0,1.9489248,1.9489248,0,-476.40326,-418.04389)"
       inkscape:label="#path6091" />
    <path
       inkscape:export-ydpi="180"
       inkscape:export-xdpi="180"
       inkscape:export-filename="/Users/nathan/Documents/Xcode Projects/CharmQuark/CharmQuark/Images/Particles/iPad-hd/blue.png"
       transform="matrix(0,1.9489248,1.9489248,0,-397.4033,-418.04389)"
       d="m 582.62066,305.61102 a 16.41931,16.41931 0 1 1 -32.83861,0 16.41931,16.41931 0 1 1 32.83861,0 z"
       sodipodi:ry="16.41931"
       sodipodi:rx="16.41931"
       sodipodi:cy="305.61102"
       sodipodi:cx="566.20135"
       id="blue"
       style="fill:#0000ff;fill-opacity:1;stroke:none;display:inline;enable-background:new"
       sodipodi:type="arc"
       inkscape:label="#path6093" />
    <path
       inkscape:export-ydpi="180"
       inkscape:export-xdpi="180"
       inkscape:export-filename="/Users/nathan/Documents/Xcode Projects/CharmQuark/CharmQuark/Images/Particles/iPad-hd/antired.png"
       sodipodi:type="arc"
       style="fill:#00fdfd;fill-opacity:1;stroke:none;display:inline;enable-background:new"
       id="antired"
       sodipodi:cx="566.20135"
       sodipodi:cy="305.61102"
       sodipodi:rx="16.41931"
       sodipodi:ry="16.41931"
       d="m 582.62066,305.61102 a 16.41931,16.41931 0 1 1 -32.83861,0 16.41931,16.41931 0 1 1 32.83861,0 z"
       transform="matrix(0,1.9489248,1.9489248,0,-318.4033,-418.04389)"
       inkscape:label="#path6095" />
    <path
       inkscape:export-ydpi="180"
       inkscape:export-xdpi="180"
       inkscape:export-filename="/Users/nathan/Documents/Xcode Projects/CharmQuark/CharmQuark/Images/Particles/iPad-hd/antigreen.png"
       transform="matrix(0,1.9489248,1.9489248,0,-239.4033,-418.04389)"
       d="m 582.62066,305.61102 a 16.41931,16.41931 0 1 1 -32.83861,0 16.41931,16.41931 0 1 1 32.83861,0 z"
       sodipodi:ry="16.41931"
       sodipodi:rx="16.41931"
       sodipodi:cy="305.61102"
       sodipodi:cx="566.20135"
       id="antigreen"
       style="fill:#ff00ff;fill-opacity:1;stroke:none;display:inline;enable-background:new"
       sodipodi:type="arc"
       inkscape:label="#path6097" />
    <path
       inkscape:export-filename="/Users/nathan/Documents/Xcode Projects/CharmQuark/CharmQuark/Images/Particles/iPad-hd/antiblue.png"
       inkscape:export-ydpi="180"
       inkscape:export-xdpi="180"
       sodipodi:type="arc"
       style="fill:#ffff00;fill-opacity:1;stroke:none;display:inline;enable-background:new"
       id="antiblue"
       sodipodi:cx="566.20135"
       sodipodi:cy="305.61102"
       sodipodi:rx="16.41931"
       sodipodi:ry="16.41931"
       d="m 582.62066,305.61102 a 16.41931,16.41931 0 1 1 -32.83861,0 16.41931,16.41931 0 1 1 32.83861,0 z"
       transform="matrix(0,1.9489248,1.9489248,0,-160.4033,-418.04389)"
       inkscape:label="#path6099" />
    <path
       inkscape:transform-center-y="-33.103448"
       inkscape:export-ydpi="180"
       inkscape:export-xdpi="180"
       inkscape:export-filename="/Users/nathan/Documents/Xcode Projects/CharmQuark/CharmQuark/Images/Particles/iPad-hd/white.png"
       sodipodi:type="arc"
       style="fill:#ffffff;fill-opacity:1;stroke:none;display:inline;enable-background:new"
       id="white"
       sodipodi:cx="566.20135"
       sodipodi:cy="305.61102"
       sodipodi:rx="16.41931"
       sodipodi:ry="16.41931"
       d="m 582.62066,305.61102 a 16.41931,16.41931 0 1 1 -32.83861,0 16.41931,16.41931 0 1 1 32.83861,0 z"
       transform="matrix(0,1.9489248,1.9489248,0,-81.403304,-418.04389)"
       inkscape:label="#path6101" />
  </g>
  <g
     inkscape:groupmode="layer"
     id="layer3"
     inkscape:label="UI Elements"
     style="display:inline">
    <rect
       style="fill:#008000;fill-opacity:1;stroke:#999999;stroke-width:0.99999994;stroke-miterlimit:4;stroke-opacity:1;stroke-dasharray:none"
       id="rect3195"
       width="359.00092"
       height="45.874638"
       x="332.49954"
       y="121.25013"
       ry="14.680082"
       rx="14.680081"
       inkscape:export-filename="/Users/nathan/Documents/Xcode Projects/CharmQuark/CharmQuark/Images/Desktop.png"
       inkscape:export-xdpi="90"
       inkscape:export-ydpi="90" />
    <rect
       ry="0"
       y="150.43929"
       x="332.50021"
       height="496.31082"
       width="359.00049"
       id="rect3971"
       style="fill:#008000;fill-opacity:1;stroke:#999999;stroke-width:0.9995169;stroke-miterlimit:4;stroke-opacity:1;stroke-dasharray:none"
       inkscape:export-filename="/Users/nathan/Documents/Xcode Projects/CharmQuark/CharmQuark/Images/Desktop.png"
       inkscape:export-xdpi="90"
       inkscape:export-ydpi="90" />
    <rect
       style="fill:#000000;fill-opacity:1;stroke:none"
       id="rect3973"
       width="358"
       height="486"
       x="333.00046"
       y="150.75012"
       ry="0" />
    <rect
       style="fill:#ffffff;fill-opacity:1;stroke:none"
       id="rect5865"
       width="22.003212"
       height="22.003212"
       x="340.00046"
       y="125.75013"
       rx="0"
       ry="14.680082" />
    <path
       transform="matrix(0.57581224,0,0,0.57581224,84.668361,81.196968)"
       d="m 481.63627,96.480682 a 19.10066,19.10066 0 1 1 -38.20132,0 19.10066,19.10066 0 1 1 38.20132,0 z"
       sodipodi:ry="19.10066"
       sodipodi:rx="19.10066"
       sodipodi:cy="96.480682"
       sodipodi:cx="462.53561"
       id="path5861"
       style="fill:#0000ff;fill-opacity:1;stroke:none"
       sodipodi:type="arc" />
    <path
       sodipodi:type="arc"
       style="fill:#ffffff;fill-opacity:1;stroke:none"
       id="path4002"
       sodipodi:cx="462.53561"
       sodipodi:cy="96.480682"
       sodipodi:rx="19.10066"
       sodipodi:ry="19.10066"
       d="m 481.63627,96.480682 a 19.10066,19.10066 0 1 1 -38.20132,0 19.10066,19.10066 0 1 1 38.20132,0 z"
       transform="matrix(0.52362643,0,0,0.52362643,108.80616,86.23189)" />
    <path
       sodipodi:type="arc"
       style="fill:#ff0000;fill-opacity:1;stroke:none"
       id="path4004"
       sodipodi:cx="429.39035"
       sodipodi:cy="95.9189"
       sodipodi:rx="11.422944"
       sodipodi:ry="11.422944"
       d="m 440.81329,95.9189 a 11.422944,11.422944 0 1 1 -22.84588,0 11.422944,11.422944 0 1 1 22.84588,0 z"
       transform="matrix(0.61294233,0,0,0.61294233,87.810501,77.958971)" />
    <path
       transform="matrix(0.4378562,0,0,0.4378562,162.9908,94.75304)"
       d="m 440.81329,95.9189 a 11.422944,11.422944 0 1 1 -22.84588,0 11.422944,11.422944 0 1 1 22.84588,0 z"
       sodipodi:ry="11.422944"
       sodipodi:rx="11.422944"
       sodipodi:cy="95.9189"
       sodipodi:cx="429.39035"
       id="path4008"
       style="fill:#00ff00;fill-opacity:1;stroke:none"
       sodipodi:type="arc" />
    <path
       sodipodi:type="arc"
       style="fill:#000000;fill-opacity:1;stroke:none"
       id="path4010"
       sodipodi:cx="429.39035"
       sodipodi:cy="95.9189"
       sodipodi:rx="11.422944"
       sodipodi:ry="11.422944"
       d="m 440.81329,95.9189 a 11.422944,11.422944 0 1 1 -22.84588,0 11.422944,11.422944 0 1 1 22.84588,0 z"
       transform="matrix(0.35003182,0,0,0.35003182,200.70174,103.17706)" />
    <g
       id="pause"
       inkscape:label="#g6315">
      <rect
         y="61.904964"
         x="988.80621"
         height="41.089756"
         width="11.405001"
         id="rect6305"
         style="fill:none;fill-opacity:1;stroke:#c6cbcc;stroke-width:4;stroke-linecap:round;stroke-linejoin:round;stroke-miterlimit:4;stroke-opacity:0.58823532;stroke-dasharray:none" />
      <rect
         style="fill:none;fill-opacity:1;stroke:#c6cbcc;stroke-width:4;stroke-linecap:round;stroke-linejoin:round;stroke-miterlimit:4;stroke-opacity:0.58823532;stroke-dasharray:none"
         id="rect6307"
         width="11.405001"
         height="41.089756"
         x="967.62549"
         y="61.904964" />
    </g>
    <g
       id="thumbguide"
       transform="matrix(0.70710678,0.70710678,-0.70710678,0.70710678,-25.732635,-434.81347)"
       inkscape:label="#g6347"
       style="stroke:#9be7f7;stroke-opacity:0.58823532000000001;stroke-width:4.00000000999999994;stroke-miterlimit:4;stroke-dasharray:none;fill:#9be7f6;fill-opacity:0.37200001">
      <path
         inkscape:connector-curvature="0"
         id="path6325"
         d="m 509.90625,-329.92767 c -44.01446,1.11511 -79.375,37.15431 -79.375,81.4375 0,44.9861 36.48265,81.46875 81.46875,81.46875 44.9861,0 81.46875,-36.48265 81.46875,-81.46875 0,-44.9861 -36.48265,-81.4375 -81.46875,-81.4375 -0.70291,0 -1.39511,-0.0177 -2.09375,0 z M 512,-313.45892 c 35.88177,0 64.96875,29.08698 64.96875,64.96875 0,35.88177 -29.08698,64.96875 -64.96875,64.96875 -35.88177,0 -64.96875,-29.08698 -64.96875,-64.96875 0,-35.88177 29.08698,-64.96875 64.96875,-64.96875 z"
         style="fill:#9be7f6;fill-opacity:0.37200001;stroke:#9be7f7;stroke-opacity:0.58823532000000001;stroke-width:4.00000000999999994;stroke-miterlimit:4;stroke-dasharray:none" />
      <path
         id="rect6321"
         d="m 514.875,-344.46875 0.0625,0.0625 c 50.67513,1.52798 91.46892,42.2944 93,92.96875 l 0.0937,0.0937 0,-93.125 -93.15625,0 z m -98.90625,98.8125 0,93.1875 93.1875,0 -0.0625,-0.0625 c -50.70197,-1.51254 -91.51871,-42.32928 -93.03125,-93.03125 l -0.0937,-0.0937 z"
         style="fill:#9be7f6;fill-opacity:0.37200001;stroke:#9be7f7;stroke-opacity:0.58823532000000001;stroke-width:4.00000000999999994;stroke-miterlimit:4;stroke-dasharray:none"
         inkscape:connector-curvature="0" />
    </g>
  </g>
  <g
     inkscape:groupmode="layer"
     id="layer6"
     inkscape:label="Sample Text"
     style="display:inline"
     sodipodi:insensitive="true">
    <g
       style="display:inline;enable-background:new"
       id="g3996"
       transform="translate(-233.59772,70.406742)">
      <text
         xml:space="preserve"
         style="font-size:20px;font-style:normal;font-variant:normal;font-weight:normal;font-stretch:normal;line-height:125%;letter-spacing:0px;word-spacing:0px;fill:#000000;fill-opacity:1;stroke:none;font-family:American Typewriter;-inkscape-font-specification:American Typewriter"
         x="600.62897"
         y="73.092422"
         id="text3991"
         sodipodi:linespacing="125%"><tspan
           sodipodi:role="line"
           id="tspan3993"
           x="600.62897"
           y="73.092422">Charm Quark</tspan></text>
      <text
         sodipodi:linespacing="125%"
         id="text3987"
         y="72.343376"
         x="600.25446"
         style="font-size:20px;font-style:normal;font-variant:normal;font-weight:normal;font-stretch:normal;line-height:125%;letter-spacing:0px;word-spacing:0px;fill:#ffffff;fill-opacity:1;stroke:none;font-family:American Typewriter;-inkscape-font-specification:American Typewriter"
         xml:space="preserve"><tspan
           y="72.343376"
           x="600.25446"
           id="tspan3989"
           sodipodi:role="line">Charm Quark</tspan></text>
    </g>
    <text
       xml:space="preserve"
       style="font-size:20px;font-style:normal;font-variant:normal;font-weight:normal;font-stretch:normal;line-height:125%;letter-spacing:0px;word-spacing:0px;fill:#ffffff;fill-opacity:1;stroke:none;display:inline;enable-background:new;font-family:Krungthep;-inkscape-font-specification:Krungthep"
       x="372.00046"
       y="206.75011"
       id="text4018"
       sodipodi:linespacing="125%"><tspan
         sodipodi:role="line"
         id="tspan4020"
         x="372.00046"
         y="206.75011">$&gt; This is some text</tspan></text>
  </g>
  <g
     inkscape:groupmode="layer"
     id="layer5"
     inkscape:label="Inner Detector Base"
     style="display:none"
     sodipodi:insensitive="true">
    <path
       sodipodi:type="arc"
       style="fill:#800000;fill-opacity:1;stroke:#999999;stroke-width:0.41580597;stroke-linecap:round;stroke-linejoin:round;stroke-miterlimit:4;stroke-opacity:1;stroke-dasharray:none;display:inline;enable-background:new"
       id="path4022"
       sodipodi:cx="742.5"
       sodipodi:cy="300.5"
       sodipodi:rx="97.5"
       sodipodi:ry="97.5"
       d="m 840,300.5 a 97.5,97.5 0 1 1 -195,0 97.5,97.5 0 1 1 195,0 z"
       transform="matrix(2.4049677,0,0,2.4049677,-1064.8096,-338.69281)" />
    <path
       d="m 840,300.5 a 97.5,97.5 0 1 1 -195,0 97.5,97.5 0 1 1 195,0 z"
       sodipodi:ry="97.5"
       sodipodi:rx="97.5"
       sodipodi:cy="300.5"
       sodipodi:cx="742.5"
       id="path5471"
       style="fill:#0000ff;fill-opacity:1;stroke:#999999;stroke-width:1.47422111;stroke-linecap:round;stroke-linejoin:round;stroke-miterlimit:4;stroke-opacity:1;stroke-dasharray:none;display:inline;enable-background:new"
       sodipodi:type="arc"
       transform="matrix(0.67832424,0,0,0.67832424,217.22319,180.16356)" />
    <path
       transform="matrix(0.41932784,0,0,0.41932784,409.52802,257.99197)"
       sodipodi:type="arc"
       style="fill:#333333;fill-opacity:1;stroke:#999999;stroke-width:2.38476896;stroke-linecap:round;stroke-linejoin:round;stroke-miterlimit:4;stroke-opacity:1;stroke-dasharray:none;display:inline;enable-background:new"
       id="path5475"
       sodipodi:cx="742.5"
       sodipodi:cy="300.5"
       sodipodi:rx="97.5"
       sodipodi:ry="97.5"
       d="m 840,300.5 a 97.5,97.5 0 1 1 -195,0 97.5,97.5 0 1 1 195,0 z" />
    <path
       d="m 840,300.5 a 97.5,97.5 0 1 1 -195,0 97.5,97.5 0 1 1 195,0 z"
       sodipodi:ry="97.5"
       sodipodi:rx="97.5"
       sodipodi:cy="300.5"
       sodipodi:cx="742.5"
       id="path5477"
       style="fill:#ff0000;fill-opacity:1;stroke:#999999;stroke-width:5.40547419;stroke-linecap:round;stroke-linejoin:round;stroke-miterlimit:4;stroke-opacity:1;stroke-dasharray:none;display:inline;enable-background:new"
       sodipodi:type="arc"
       transform="matrix(0.18499764,0,0,0.18499764,583.51817,328.40819)" />
  </g>
  <g
     inkscape:groupmode="layer"
     id="layer7"
     inkscape:label="Inner Detector Lines"
     style="display:none"
     sodipodi:insensitive="true">
    <g
       style="display:inline;enable-background:new"
       id="g5749"
       transform="matrix(2.303969,0,0,2.303969,-989.81796,-308.34269)">
      <g
         style="stroke:none"
         id="g5491">
        <rect
           style="fill:#00ff00;stroke:none;display:inline;enable-background:new"
           id="rect5479"
           width="5"
           height="36.695171"
           x="740"
           y="231.30482" />
        <rect
           y="333"
           x="740"
           height="43.580688"
           width="5"
           id="rect5481"
           style="fill:#00ff00;stroke:none;display:inline;enable-background:new" />
      </g>
      <g
         style="stroke:none"
         transform="matrix(0.9814429,0.19175462,-0.19175462,0.9814429,71.400911,-136.8014)"
         id="g5501">
        <rect
           y="227.94452"
           x="740"
           height="40.055481"
           width="5"
           id="rect5503"
           style="fill:#00ff00;stroke:none;display:inline;enable-background:new" />
        <rect
           style="fill:#00ff00;stroke:none;display:inline;enable-background:new"
           id="rect5505"
           width="5"
           height="43.300014"
           x="740"
           y="333" />
      </g>
      <g
         style="stroke:none"
         id="g5507"
         transform="matrix(0.92477296,0.38051932,-0.38051932,0.92477296,170.20213,-259.92987)">
        <rect
           style="fill:#00ff00;stroke:none;display:inline;enable-background:new"
           id="rect5509"
           width="5"
           height="18.687302"
           x="740"
           y="249.3127" />
        <rect
           y="333"
           x="740"
           height="53.287994"
           width="5"
           id="rect5511"
           style="fill:#00ff00;stroke:none;display:inline;enable-background:new" />
      </g>
      <g
         style="stroke:none"
         transform="matrix(0.82925729,0.55886702,-0.55886702,0.82925729,294.716,-363.65058)"
         id="g5513">
        <rect
           y="237.38036"
           x="740"
           height="30.61965"
           width="5"
           id="rect5515"
           style="fill:#00ff00;stroke:none;display:inline;enable-background:new" />
        <rect
           style="fill:#00ff00;stroke:none;display:inline;enable-background:new"
           id="rect5517"
           width="5"
           height="39.690487"
           x="740"
           y="333" />
      </g>
      <g
         style="stroke:none"
         id="g5519"
         transform="matrix(0.70594481,0.70826685,-0.70826685,0.70594481,431.17015,-437.52455)">
        <rect
           style="fill:#00ff00;stroke:none;display:inline;enable-background:new"
           id="rect5521"
           width="5"
           height="45.390556"
           x="740"
           y="222.60944" />
        <rect
           y="333"
           x="740"
           height="52.507095"
           width="5"
           id="rect5523"
           style="fill:#00ff00;stroke:none;display:inline;enable-background:new" />
      </g>
      <g
         style="stroke:none"
         transform="matrix(0.43588293,0.90000338,-0.90000338,0.43588293,689.30792,-498.73532)"
         id="g5525">
        <rect
           transform="matrix(0.99122901,-0.13215537,0.13215537,0.99122901,0,0)"
           y="304.2309"
           x="693.83661"
           height="59.258793"
           width="4.9382329"
           id="rect5527"
           style="fill:#00ff00;stroke:none;display:inline;enable-background:new" />
        <rect
           transform="matrix(0.99122901,-0.13215537,0.13215537,0.99122901,0,0)"
           style="fill:#00ff00;stroke:none;display:inline;enable-background:new"
           id="rect5529"
           width="5"
           height="51.4688"
           x="693.77484"
           y="428.48969" />
      </g>
      <g
         style="stroke:none"
         id="g5531"
         transform="matrix(0.18628024,0.98249666,-0.98249666,0.18628024,899.4272,-484.98097)">
        <rect
           style="fill:#00ff00;stroke:none;display:inline;enable-background:new"
           id="rect5533"
           width="5"
           height="28.40934"
           x="740"
           y="239.59065" />
        <rect
           y="333"
           x="740"
           height="17.481266"
           width="5"
           id="rect5535"
           style="fill:#00ff00;stroke:none;display:inline;enable-background:new" />
      </g>
      <g
         style="stroke:none"
         transform="matrix(0.38236169,0.92401274,-0.92401274,0.38236169,736.26231,-500.47914)"
         id="g5537">
        <rect
           y="217.33253"
           x="740"
           height="50.667461"
           width="5"
           id="rect5539"
           style="fill:#00ff00;stroke:none;display:inline;enable-background:new" />
        <rect
           style="fill:#00ff00;stroke:none;display:inline;enable-background:new"
           id="rect5541"
           width="5"
           height="27.968971"
           x="740"
           y="333" />
      </g>
      <g
         style="stroke:none"
         transform="matrix(0,1,-1,0,1043,-442)"
         id="g5591">
        <rect
           y="248.78345"
           x="740"
           height="19.216551"
           width="5"
           id="rect5593"
           style="fill:#00ff00;stroke:none;display:inline;enable-background:new" />
        <rect
           style="fill:#00ff00;stroke:none;display:inline;enable-background:new"
           id="rect5595"
           width="5"
           height="9.6827583"
           x="740"
           y="333" />
      </g>
      <g
         style="stroke:none"
         id="g5597"
         transform="matrix(-0.19175462,0.9814429,-0.9814429,-0.19175462,1179.8014,-370.59909)">
        <rect
           style="fill:#00ff00;stroke:none;display:inline;enable-background:new"
           id="rect5599"
           width="5"
           height="9.1050501"
           x="740"
           y="258.89496" />
        <rect
           y="333"
           x="740"
           height="32.485226"
           width="5"
           id="rect5601"
           style="fill:#00ff00;stroke:none;display:inline;enable-background:new" />
      </g>
      <g
         style="stroke:none"
         transform="matrix(-0.38051932,0.92477296,-0.92477296,-0.38051932,1302.9299,-271.79787)"
         id="g5603">
        <rect
           y="230.35542"
           x="740"
           height="37.644577"
           width="5"
           id="rect5605"
           style="fill:#00ff00;stroke:none;display:inline;enable-background:new" />
        <rect
           style="fill:#00ff00;stroke:none;display:inline;enable-background:new"
           id="rect5607"
           width="5"
           height="36.664955"
           x="740"
           y="333" />
      </g>
      <g
         style="stroke:none"
         id="g5609"
         transform="matrix(-0.55886702,0.82925729,-0.82925729,-0.55886702,1406.6506,-147.284)">
        <rect
           style="fill:#00ff00;stroke:none;display:inline;enable-background:new"
           id="rect5611"
           width="5"
           height="49.410812"
           x="740"
           y="218.58919" />
        <rect
           y="333"
           x="740"
           height="34.123833"
           width="5"
           id="rect5613"
           style="fill:#00ff00;stroke:none;display:inline;enable-background:new" />
      </g>
      <g
         style="stroke:none"
         transform="matrix(-0.70826685,0.70594481,-0.70594481,-0.70826685,1480.5245,-10.829831)"
         id="g5615">
        <rect
           y="238.33691"
           x="740"
           height="29.663082"
           width="5"
           id="rect5617"
           style="fill:#00ff00;stroke:none;display:inline;enable-background:new" />
        <rect
           style="fill:#00ff00;stroke:none;display:inline;enable-background:new"
           id="rect5619"
           width="5"
           height="39.021835"
           x="740"
           y="333" />
      </g>
      <g
         style="stroke:none"
         id="g5621"
         transform="matrix(-0.90000338,0.43588293,-0.43588293,-0.90000338,1541.7353,247.30795)">
        <rect
           style="fill:#00ff00;stroke:none;display:inline;enable-background:new"
           id="rect5623"
           width="5"
           height="42.220718"
           x="693.77484"
           y="321.26895"
           transform="matrix(0.99122901,-0.13215537,0.13215537,0.99122901,0,0)" />
        <rect
           y="428.48969"
           x="693.77484"
           height="45.00592"
           width="5"
           id="rect5625"
           style="fill:#00ff00;stroke:none;display:inline;enable-background:new"
           transform="matrix(0.99122901,-0.13215537,0.13215537,0.99122901,0,0)" />
      </g>
      <g
         style="stroke:none"
         transform="matrix(-0.98249666,0.18628024,-0.18628024,-0.98249666,1527.981,457.42718)"
         id="g5627">
        <rect
           y="236.0737"
           x="740"
           height="31.926304"
           width="5"
           id="rect5629"
           style="fill:#00ff00;stroke:none;display:inline;enable-background:new" />
        <rect
           style="fill:#00ff00;stroke:none;display:inline;enable-background:new"
           id="rect5631"
           width="5"
           height="44.388466"
           x="740"
           y="333" />
      </g>
      <g
         style="stroke:none"
         id="g5633"
         transform="matrix(-0.92401274,0.38236169,-0.38236169,-0.92401274,1543.4792,294.26228)">
        <rect
           style="fill:#00ff00;stroke:none;display:inline;enable-background:new"
           id="rect5635"
           width="5"
           height="46.920933"
           x="740"
           y="221.07907" />
        <rect
           y="333"
           x="740"
           height="54.245255"
           width="5"
           id="rect5637"
           style="fill:#00ff00;stroke:none;display:inline;enable-background:new" />
      </g>
    </g>
  </g>
  <g
     inkscape:groupmode="layer"
     id="layer9"
     inkscape:label="Outer Detector"
     style="display:inline"
     sodipodi:insensitive="true">
    <g
       id="detector"
       inkscape:export-filename="/Users/nathan/Documents/Xcode Projects/CharmQuark/CharmQuark/Images/Clock/iPhone-hd/detector.png"
       inkscape:export-xdpi="84.379997"
       inkscape:export-ydpi="84.379997"
       inkscape:label="#g6241">
      <path
         id="path6103"
         d="m 720.03125,84.625 c -166.06193,0 -300.6875,134.62556 -300.6875,300.6875 0,166.06193 134.62557,300.6875 300.6875,300.6875 166.06194,0 300.65625,-134.62557 300.65625,-300.6875 0,-166.06194 -134.59431,-300.6875 -300.65625,-300.6875 z m 0,66.21875 c 129.50212,0 234.46875,104.96663 234.46875,234.46875 0,129.50213 -104.96663,234.5 -234.46875,234.5 -129.50213,0 -234.5,-104.99787 -234.5,-234.5 0,-129.50212 104.99787,-234.46875 234.5,-234.46875 z"
         style="fill:#808080;fill-opacity:1;stroke:#c6cbcc;stroke-width:4;stroke-miterlimit:4;stroke-opacity:1;stroke-dasharray:none"
         inkscape:connector-curvature="0" />
      <path
         sodipodi:nodetypes="cc"
         inkscape:connector-curvature="0"
         id="path6159"
         d="m 421.48233,385.3125 62.5766,0"
         style="fill:#808080;fill-opacity:1;stroke:#c6cbcc;stroke-width:4;stroke-linecap:round;stroke-linejoin:round;stroke-miterlimit:4;stroke-opacity:1;stroke-dasharray:none" />
      <use
         height="768"
         width="1024"
         transform="translate(534.48998,0)"
         id="use6183"
         xlink:href="#path6159"
         y="0"
         x="0" />
      <use
         height="768"
         width="1024"
         transform="matrix(0,1,-1,0,1105.3281,-334.70312)"
         id="use6197"
         xlink:href="#path6159"
         y="0"
         x="0" />
      <use
         height="768"
         width="1024"
         transform="matrix(0,1,-1,0,1105.3281,-334.70312)"
         id="use6199"
         xlink:href="#use6183"
         y="0"
         x="0" />
      <use
         x="0"
         y="0"
         xlink:href="#path6159"
         id="use6201"
         transform="matrix(-0.70710678,0.70710678,-0.70710678,-0.70710678,1501.6006,148.64165)"
         width="1024"
         height="768" />
      <use
         x="0"
         y="0"
         xlink:href="#use6183"
         id="use6203"
         transform="matrix(-0.70710678,0.70710678,-0.70710678,-0.70710678,1501.6006,148.64165)"
         width="1024"
         height="768" />
      <use
         height="768"
         width="1024"
         transform="matrix(0.70710678,0.70710678,-0.70710678,0.70710678,483.34475,-396.27251)"
         id="use6205"
         xlink:href="#path6159"
         y="0"
         x="0" />
      <use
         height="768"
         width="1024"
         transform="matrix(0.70710678,0.70710678,-0.70710678,0.70710678,483.34475,-396.27251)"
         id="use6207"
         xlink:href="#use6183"
         y="0"
         x="0" />
      <use
         x="0"
         y="0"
         xlink:href="#path6159"
         id="use6209"
         transform="matrix(0.25881904,0.96592582,-0.96592582,0.25881904,905.84513,-409.8954)"
         width="1024"
         height="768" />
      <use
         x="0"
         y="0"
         xlink:href="#use6183"
         id="use6211"
         transform="matrix(0.25881904,0.96592582,-0.96592582,0.25881904,905.84513,-409.8954)"
         width="1024"
         height="768" />
      <use
         height="768"
         width="1024"
         transform="matrix(0.49999999,0.8660254,-0.8660254,0.49999999,693.6982,-430.89557)"
         id="use6213"
         xlink:href="#path6159"
         y="0"
         x="0" />
      <use
         height="768"
         width="1024"
         transform="matrix(0.49999999,0.8660254,-0.8660254,0.49999999,693.6982,-430.89557)"
         id="use6215"
         xlink:href="#use6183"
         y="0"
         x="0" />
      <use
         x="0"
         y="0"
         xlink:href="#path6159"
         id="use6217"
         transform="matrix(0.86602539,0.5,-0.5,0.86602539,289.12003,-308.38573)"
         width="1024"
         height="768" />
      <use
         x="0"
         y="0"
         xlink:href="#use6183"
         id="use6219"
         transform="matrix(0.86602539,0.5,-0.5,0.86602539,289.12003,-308.38573)"
         width="1024"
         height="768" />
      <use
         height="768"
         width="1024"
         transform="matrix(0.96592581,0.25881905,-0.25881905,0.96592581,124.26013,-173.22456)"
         id="use6221"
         xlink:href="#path6159"
         y="0"
         x="0" />
      <use
         height="768"
         width="1024"
         transform="matrix(0.96592581,0.25881905,-0.25881905,0.96592581,124.26013,-173.22456)"
         id="use6223"
         xlink:href="#use6183"
         y="0"
         x="0" />
      <use
         x="0"
         y="0"
         xlink:href="#path6159"
         id="use6225"
         transform="matrix(0.96592581,-0.25881903,0.25881903,0.96592581,-75.192297,199.48294)"
         width="1024"
         height="768" />
      <use
         x="0"
         y="0"
         xlink:href="#use6183"
         id="use6227"
         transform="matrix(0.96592581,-0.25881903,0.25881903,0.96592581,-75.192297,199.48294)"
         width="1024"
         height="768" />
      <use
         height="768"
         width="1024"
         transform="matrix(0.86602539,-0.49999998,0.49999998,0.86602539,-96.192471,411.62987)"
         id="use6229"
         xlink:href="#path6159"
         y="0"
         x="0" />
      <use
         height="768"
         width="1024"
         transform="matrix(0.86602539,-0.49999998,0.49999998,0.86602539,-96.192471,411.62987)"
         id="use6231"
         xlink:href="#use6183"
         y="0"
         x="0" />
      <use
         x="0"
         y="0"
         xlink:href="#path6159"
         id="use6233"
         transform="matrix(0.5,-0.86602538,0.86602538,0.5,26.317367,816.20803)"
         width="1024"
         height="768" />
      <use
         x="0"
         y="0"
         xlink:href="#use6183"
         id="use6235"
         transform="matrix(0.5,-0.86602538,0.86602538,0.5,26.317367,816.20803)"
         width="1024"
         height="768" />
      <use
         height="768"
         width="1024"
         transform="matrix(0.25881905,-0.9659258,0.9659258,0.25881905,161.47854,981.06793)"
         id="use6237"
         xlink:href="#path6159"
         y="0"
         x="0" />
      <use
         height="768"
         width="1024"
         transform="matrix(0.25881905,-0.9659258,0.9659258,0.25881905,161.47854,981.06793)"
         id="use6239"
         xlink:href="#use6183"
         y="0"
         x="0" />
    </g>
  </g>
</svg>
